<svg width="49" height="49" viewBox="0 0 49 49" fill="none" xmlns="http://www.w3.org/2000/svg">
<g clip-path="url(#clip0_76704_112)">
<path d="M13.58 10.6265C13.7 12.4065 14 14.1465 14.48 15.8065L12.08 18.2065C11.26 15.8065 10.74 13.2665 10.56 10.6265H13.58ZM33.3 34.6665C35 35.1465 36.74 35.4465 38.5 35.5665V38.5465C35.86 38.3665 33.32 37.8465 30.9 37.0465L33.3 34.6665ZM15.5 6.62646H8.5C7.4 6.62646 6.5 7.52646 6.5 8.62646C6.5 27.4065 21.72 42.6265 40.5 42.6265C41.6 42.6265 42.5 41.7265 42.5 40.6265V33.6465C42.5 32.5465 41.6 31.6465 40.5 31.6465C38.02 31.6465 35.6 31.2465 33.36 30.5065C33.16 30.4265 32.94 30.4065 32.74 30.4065C32.22 30.4065 31.72 30.6065 31.32 30.9865L26.92 35.3865C21.26 32.4865 16.62 27.8665 13.74 22.2065L18.14 17.8065C18.7 17.2465 18.86 16.4665 18.64 15.7665C17.9 13.5265 17.5 11.1265 17.5 8.62646C17.5 7.52646 16.6 6.62646 15.5 6.62646Z" fill="#97EBA9"/>
</g>
<defs>
<clipPath id="clip0_76704_112">
<rect width="48" height="48" fill="white" transform="translate(0.5 0.626465)"/>
</clipPath>
</defs>
</svg>
