<svg width="37" height="37" viewBox="0 0 37 37" fill="none" xmlns="http://www.w3.org/2000/svg">
<g clip-path="url(#clip0_82783_460)">
<path d="M18.5 37C28.7173 37 37 28.7173 37 18.5C37 8.28273 28.7173 0 18.5 0C8.28273 0 0 8.28273 0 18.5C0 28.7173 8.28273 37 18.5 37Z" fill="#5EBBFF"/>
<path d="M13.7729 26.8458L23.2856 36.3585C31.1641 34.2575 37.0001 27.0793 37.0001 18.5004C37.0001 18.3253 37.0001 18.1503 37.0001 17.9752L29.53 11.0887L13.7729 26.8458Z" fill="#1E6191"/>
<path d="M18.9669 22.6431C19.7839 23.4601 19.7839 24.8608 18.9669 25.6778L17.2745 27.3702C16.4574 28.1873 15.0568 28.1873 14.2398 27.3702L6.82811 19.9002C6.01107 19.0832 6.01107 17.6825 6.82811 16.8655L8.52054 15.1731C9.33757 14.356 10.7382 14.356 11.5552 15.1731L18.9669 22.6431Z" fill="white"/>
<path d="M25.4451 9.74559C26.2621 8.92855 27.6627 8.92855 28.4798 9.74559L30.1722 11.438C30.9892 12.2551 30.9892 13.6557 30.1722 14.4727L17.3331 27.2535C16.516 28.0705 15.1154 28.0705 14.2984 27.2535L12.6059 25.561C11.7889 24.744 11.7889 23.3434 12.6059 22.5263L25.4451 9.74559Z" fill="white"/>
</g>
<defs>
<clipPath id="clip0_82783_460">
<rect width="37" height="37" fill="white"/>
</clipPath>
</defs>
</svg>
