<svg width="37" height="37" viewBox="0 0 37 37" fill="none" xmlns="http://www.w3.org/2000/svg">
<g clip-path="url(#clip0_82818_29)">
<path d="M36 18.5C36 28.165 28.165 36 18.5 36C8.83502 36 1 28.165 1 18.5C1 8.83502 8.83502 1 18.5 1C28.165 1 36 8.83502 36 18.5Z" stroke="white" stroke-width="2"/>
<path d="M18.8685 21.7836C19.5137 22.4287 19.5137 23.5347 18.8685 24.1798L17.5322 25.5162C16.887 26.1613 15.7811 26.1613 15.136 25.5162L9.28366 19.6178C8.63852 18.9727 8.63852 17.8667 9.28366 17.2216L10.62 15.8852C11.2651 15.2401 12.3711 15.2401 13.0162 15.8852L18.8685 21.7836Z" fill="white"/>
<path d="M23.9835 11.5996C24.6287 10.9544 25.7346 10.9544 26.3797 11.5996L27.7161 12.9359C28.3612 13.5811 28.3612 14.687 27.7161 15.3321L17.5782 25.4239C16.9331 26.0691 15.8272 26.0691 15.182 25.4239L13.8457 24.0876C13.2005 23.4424 13.2005 22.3365 13.8457 21.6913L23.9835 11.5996Z" fill="white"/>
</g>
<defs>
<clipPath id="clip0_82818_29">
<rect width="37" height="37" fill="white"/>
</clipPath>
</defs>
</svg>
