<svg width="24" height="25" viewBox="0 0 24 25" fill="none" xmlns="http://www.w3.org/2000/svg">
<rect x="0.5" y="1.31348" width="23" height="23" rx="11.5" stroke="#97EBA9"/>
<path d="M12 14.8135C12.5304 14.8135 13.0391 14.6028 13.4142 14.2277C13.7893 13.8526 14 13.3439 14 12.8135C14 12.283 13.7893 11.7743 13.4142 11.3993C13.0391 11.0242 12.5304 10.8135 12 10.8135C11.4696 10.8135 10.9609 11.0242 10.5858 11.3993C10.2107 11.7743 10 12.283 10 12.8135C10 13.3439 10.2107 13.8526 10.5858 14.2277C10.9609 14.6028 11.4696 14.8135 12 14.8135V14.8135Z" stroke="#97EBA9" stroke-linecap="round" stroke-linejoin="round"/>
<path d="M7.5 14.8135V10.8135C7.5 10.1504 7.76339 9.51455 8.23223 9.04571C8.70107 8.57687 9.33696 8.31348 10 8.31348H14C14.663 8.31348 15.2989 8.57687 15.7678 9.04571C16.2366 9.51455 16.5 10.1504 16.5 10.8135V14.8135C16.5 15.4765 16.2366 16.1124 15.7678 16.5812C15.2989 17.0501 14.663 17.3135 14 17.3135H10C9.33696 17.3135 8.70107 17.0501 8.23223 16.5812C7.76339 16.1124 7.5 15.4765 7.5 14.8135Z" stroke="#97EBA9"/>
<path d="M14.75 10.0703L14.7567 10.063" stroke="#97EBA9" stroke-linecap="round" stroke-linejoin="round"/>
</svg>
