<svg width="49" height="49" viewBox="0 0 49 49" fill="none" xmlns="http://www.w3.org/2000/svg">
<g clip-path="url(#clip0_76704_126)">
<path d="M24.5 4.62646C16.76 4.62646 10.5 10.8865 10.5 18.6265C10.5 29.1265 24.5 44.6265 24.5 44.6265C24.5 44.6265 38.5 29.1265 38.5 18.6265C38.5 10.8865 32.24 4.62646 24.5 4.62646ZM14.5 18.6265C14.5 13.1065 18.98 8.62646 24.5 8.62646C30.02 8.62646 34.5 13.1065 34.5 18.6265C34.5 24.3865 28.74 33.0065 24.5 38.3865C20.34 33.0465 14.5 24.3265 14.5 18.6265Z" fill="#97EBA9"/>
<path d="M24.5 23.6265C27.2614 23.6265 29.5 21.3879 29.5 18.6265C29.5 15.865 27.2614 13.6265 24.5 13.6265C21.7386 13.6265 19.5 15.865 19.5 18.6265C19.5 21.3879 21.7386 23.6265 24.5 23.6265Z" fill="#97EBA9"/>
</g>
<defs>
<clipPath id="clip0_76704_126">
<rect width="48" height="48" fill="white" transform="translate(0.5 0.626465)"/>
</clipPath>
</defs>
</svg>
