<svg width="217" height="39" viewBox="0 0 217 39" fill="none" xmlns="http://www.w3.org/2000/svg">
<path d="M42.6165 16.4855V15.9734C42.6165 14.2031 42.9674 12.6854 43.6693 11.4248C44.3712 10.1643 45.3109 9.20038 46.4861 8.52841C47.6636 7.85875 48.9519 7.52277 50.3557 7.52277C51.9395 7.52277 53.1447 7.81241 53.9713 8.39169C54.7978 8.97098 55.4028 9.57807 55.7883 10.2153H56.3655V8.0001H60.1682V28.0665C60.1682 29.1556 59.8519 30.0245 59.2169 30.6733C58.582 31.3198 57.7231 31.6442 56.638 31.6442H45.3686V28.238H55.3497C55.9823 28.238 56.3009 27.8974 56.3009 27.2162V22.3432H55.7237C55.4974 22.7302 55.1696 23.1218 54.7401 23.518C54.3107 23.9165 53.7381 24.2502 53.027 24.5236C52.3135 24.7971 51.4246 24.9314 50.3626 24.9314C48.9588 24.9314 47.6682 24.5955 46.493 23.9258C45.3155 23.2562 44.3758 22.2899 43.6762 21.0294C42.9743 19.7689 42.6234 18.2534 42.6234 16.4808L42.6165 16.4855ZM51.4431 21.5276C52.8469 21.5276 54.0175 21.0734 54.9572 20.1651C55.8968 19.2568 56.3655 17.9962 56.3655 16.3835V16.0429C56.3655 14.407 55.9015 13.1465 54.9733 12.2613C54.0452 11.3762 52.8677 10.9336 51.4431 10.9336C50.0186 10.9336 48.8411 11.3762 47.9129 12.2613C46.9848 13.1465 46.5207 14.407 46.5207 16.0429V16.3835C46.5207 17.9962 46.9848 19.2568 47.9129 20.1651C48.8411 21.0734 50.0186 21.5276 51.4431 21.5276Z" fill="#252630"/>
<path d="M63.502 24.8318V8.00238H67.3046V9.94414H67.8818C68.1542 9.23973 68.5768 8.72996 69.154 8.41019C69.7312 8.09274 70.4377 7.93286 71.2758 7.93286H73.3122V11.4086H71.1742C70.066 11.4086 69.154 11.7098 68.4405 12.3123C67.7271 12.9147 67.3715 13.8393 67.3715 15.0882V24.8318H63.502Z" fill="#252630"/>
<path d="M82.6098 25.3091C80.9359 25.3091 79.4352 24.9615 78.1122 24.271C76.7892 23.5782 75.748 22.5911 74.9884 21.3074C74.2288 20.0237 73.8501 18.4851 73.8501 16.6916V16.1471C73.8501 14.3536 74.2288 12.8081 74.9884 11.5128C75.7457 10.2175 76.7869 9.23044 78.1122 8.5492C79.4352 7.86796 80.9359 7.52734 82.6098 7.52734C84.2837 7.52734 85.7775 7.86796 87.0912 8.5492C88.4027 9.23044 89.4393 10.2175 90.1966 11.5128C90.9539 12.8081 91.3349 14.3513 91.3349 16.1471V16.6916C91.3349 18.4851 90.9562 20.026 90.1966 21.3074C89.4393 22.5911 88.4027 23.5782 87.0912 24.271C85.7775 24.9638 84.286 25.3091 82.6098 25.3091ZM82.6098 21.8681C84.0367 21.8681 85.2003 21.4024 86.1054 20.4709C87.0104 19.5394 87.463 18.2464 87.463 16.5874V16.2467C87.463 14.5668 87.0151 13.2669 86.1215 12.347C85.228 11.4271 84.0551 10.9683 82.6075 10.9683C81.1599 10.9683 80.0101 11.4271 79.0935 12.347C78.1769 13.2669 77.7197 14.5668 77.7197 16.2467V16.5874C77.7197 18.2464 78.1769 19.5394 79.0935 20.4709C80.0101 21.4024 81.1806 21.8681 82.6075 21.8681H82.6098Z" fill="#252630"/>
<path d="M95.0269 24.8318L92.3787 8.00238H96.2483L98.0468 22.2088H98.6241L101.171 8.00238H107.416L109.963 22.2088H110.54L112.373 8.00238H116.208L113.595 24.8318H107.146L104.599 10.6254H104.022L101.475 24.8318H95.0269Z" fill="#252630"/>
<path d="M125.727 24.8318C124.663 24.8318 123.809 24.5074 123.164 23.8609C122.52 23.2144 122.197 22.3455 122.197 21.2541V11.2394H117.785V8.00238H122.197V2.5849H126.067V8.00238H130.888V11.2394H126.067V20.5729C126.067 21.2541 126.383 21.5947 127.018 21.5947H130.38V24.8318H125.73H125.727Z" fill="#252630"/>
<path d="M133.178 24.8318V0.983765H137.048V10.2153H137.625C137.828 9.82829 138.135 9.44365 138.542 9.05668C138.948 8.66972 139.486 8.35227 140.153 8.10202C140.82 7.85177 141.663 7.72665 142.681 7.72665C143.972 7.72665 145.108 8.01629 146.094 8.59557C147.077 9.17486 147.846 9.98586 148.403 11.0309C148.957 12.0759 149.234 13.3133 149.234 14.7453V24.8295H145.364V15.0511C145.364 13.6886 145.029 12.6714 144.362 12.0018C143.695 11.3321 142.75 10.9961 141.527 10.9961C140.146 10.9961 139.054 11.4549 138.251 12.3748C137.447 13.2947 137.045 14.6062 137.045 16.3093V24.8271H133.176L133.178 24.8318Z" fill="#252630"/>
<path d="M160.357 25.3091C158.727 25.3091 157.264 24.9685 155.961 24.2872C154.659 23.606 153.625 22.6189 152.856 21.3236C152.087 20.0283 151.702 18.4735 151.702 16.6569V16.1796C151.702 14.3629 152.087 12.8058 152.856 11.5128C153.625 10.2175 154.659 9.23044 155.961 8.5492C157.264 7.86796 158.727 7.52734 160.357 7.52734C161.987 7.52734 163.338 7.81235 164.481 8.38005C165.624 8.94775 166.545 9.72631 167.247 10.7134C167.949 11.7005 168.401 12.8081 168.605 14.0339L164.871 14.8171C164.758 14.0895 164.532 13.4384 164.192 12.8591C163.853 12.2798 163.373 11.821 162.749 11.4804C162.126 11.1398 161.364 10.9683 160.459 10.9683C159.554 10.9683 158.7 11.1722 157.963 11.5823C157.227 11.9902 156.645 12.5926 156.215 13.3874C155.786 14.1822 155.571 15.1368 155.571 16.2491V16.5897C155.571 17.7019 155.786 18.6566 156.215 19.4514C156.645 20.2461 157.229 20.8486 157.963 21.2564C158.697 21.6642 159.531 21.8704 160.459 21.8704C161.84 21.8704 162.886 21.5067 163.599 20.7814C164.312 20.0538 164.77 19.1246 164.973 17.9869L168.706 18.8721C168.434 20.0538 167.949 21.1313 167.247 22.1091C166.545 23.0869 165.624 23.8632 164.481 24.4425C163.338 25.0218 161.962 25.3114 160.357 25.3114V25.3091Z" fill="#97EBA9"/>
<path d="M170.874 24.8318V8.00238H174.677V9.94414H175.254C175.527 9.23973 175.949 8.72996 176.526 8.41019C177.103 8.09274 177.81 7.93286 178.648 7.93286H180.684V11.4086H178.547C177.438 11.4086 176.526 11.7098 175.813 12.3123C175.099 12.9147 174.744 13.8393 174.744 15.0882V24.8318H170.874Z" fill="#97EBA9"/>
<path d="M189.689 25.3091C188.015 25.3091 186.537 24.9522 185.258 24.2362C183.979 23.5203 182.984 22.51 182.271 21.2054C181.557 19.8986 181.202 18.3716 181.202 16.6221V16.2143C181.202 14.444 181.553 12.9101 182.254 11.6148C182.956 10.3195 183.94 9.31618 185.207 8.60018C186.475 7.88418 187.934 7.52734 189.587 7.52734C191.24 7.52734 192.642 7.88418 193.866 8.60018C195.087 9.31618 196.038 10.3195 196.717 11.6148C197.396 12.9101 197.735 14.4208 197.735 16.1448V17.542H185.141C185.187 18.8605 185.651 19.9148 186.533 20.7096C187.415 21.5043 188.502 21.9029 189.791 21.9029C191.079 21.9029 191.998 21.6248 192.607 21.0687C193.219 20.5126 193.692 19.8823 194.032 19.1779L197.223 20.8463C196.906 21.4603 196.447 22.1137 195.849 22.8043C195.249 23.4971 194.452 24.088 193.455 24.5746C192.46 25.0635 191.204 25.3068 189.687 25.3068L189.689 25.3091ZM185.175 14.5784H193.796C193.706 13.4662 193.281 12.581 192.524 11.9206C191.765 11.2626 190.776 10.9335 189.553 10.9335C188.329 10.9335 187.313 11.2626 186.565 11.9206C185.817 12.5787 185.355 13.4662 185.173 14.5784H185.175Z" fill="#97EBA9"/>
<path d="M207.123 25.3091C205.765 25.3091 204.498 24.9731 203.32 24.3035C202.143 23.6338 201.203 22.6514 200.504 21.3561C199.802 20.0608 199.451 18.506 199.451 16.6893V16.1448C199.451 14.3282 199.802 12.7711 200.504 11.4781C201.205 10.1828 202.138 9.20035 203.304 8.53069C204.47 7.86104 205.742 7.52506 207.123 7.52506C208.187 7.52506 209.074 7.65018 209.787 7.90043C210.501 8.15068 211.083 8.47508 211.535 8.87131C211.988 9.26986 212.327 9.68463 212.553 10.1156H213.131V0.983765H217V24.8318H213.197V22.6166H212.62C212.235 23.2978 211.618 23.9165 210.771 24.4726C209.921 25.0287 208.704 25.3068 207.121 25.3068L207.123 25.3091ZM208.277 21.9029C209.681 21.9029 210.852 21.4488 211.791 20.5404C212.731 19.6321 213.2 18.316 213.2 16.5897V16.2491C213.2 14.5228 212.736 13.2067 211.808 12.2984C210.879 11.39 209.702 10.9359 208.277 10.9359C206.853 10.9359 205.675 11.39 204.747 12.2984C203.819 13.2067 203.355 14.5251 203.355 16.2491V16.5897C203.355 18.316 203.819 19.6344 204.747 20.5404C205.675 21.4488 206.853 21.9029 208.277 21.9029Z" fill="#97EBA9"/>
<path d="M35.6645 5.03418V26.5442C35.6645 32.1772 31.1138 36.7443 25.501 36.7443H4.06812L35.6645 5.03418Z" fill="#97EBA9"/>
<path d="M12.7355 9.5363L17.8103 14.7869L0 32.6614V11.1513C0 5.51838 4.5507 0.951294 10.1635 0.951294H31.5963L12.7355 9.5363Z" fill="#97EBA9"/>
<path d="M70.9202 36.8138C70.5947 36.8138 70.3014 36.7559 70.0429 36.64C69.7843 36.5241 69.5811 36.348 69.4333 36.114C69.2856 35.88 69.2117 35.5857 69.2117 35.2312V35.0945H69.7473V35.2312C69.7473 35.6065 69.8558 35.8846 70.0752 36.0677C70.2945 36.2507 70.5762 36.3434 70.9202 36.3434C71.2642 36.3434 71.5413 36.2646 71.726 36.1047C71.9107 35.9449 72.003 35.7456 72.003 35.5023C72.003 35.3354 71.9615 35.201 71.8784 35.1014C71.7953 35.0018 71.6775 34.9207 71.5274 34.8581C71.3774 34.7955 71.2019 34.7399 70.9987 34.6936L70.6639 34.6102C70.4007 34.5407 70.1698 34.4572 69.969 34.3576C69.7658 34.258 69.6088 34.1282 69.4957 33.966C69.3825 33.8038 69.3248 33.5976 69.3248 33.3427C69.3248 33.0878 69.3871 32.8677 69.5141 32.6823C69.6411 32.4969 69.8189 32.3556 70.0498 32.256C70.2807 32.1563 70.5439 32.1077 70.8463 32.1077C71.1488 32.1077 71.4258 32.161 71.6683 32.2652C71.9107 32.3718 72.1023 32.5271 72.2409 32.731C72.3794 32.9349 72.451 33.1944 72.451 33.5049V33.776H71.9153V33.5049C71.9153 33.2848 71.8691 33.1087 71.7768 32.9743C71.6844 32.8399 71.5574 32.7426 71.3958 32.6777C71.2342 32.6128 71.0518 32.5804 70.844 32.5804C70.5485 32.5804 70.3084 32.6452 70.1283 32.7773C69.9482 32.9094 69.8581 33.0948 69.8581 33.3357C69.8581 33.4956 69.8974 33.6254 69.9736 33.725C70.0498 33.8247 70.1606 33.9058 70.3014 33.9683C70.4423 34.0309 70.6131 34.0865 70.8094 34.1328L71.1442 34.2163C71.4051 34.2719 71.6406 34.3483 71.8507 34.4457C72.0585 34.543 72.2247 34.6751 72.3494 34.8396C72.474 35.0064 72.5364 35.2219 72.5364 35.4907C72.5364 35.7595 72.4694 35.9912 72.3355 36.1882C72.2016 36.3874 72.0146 36.5404 71.7722 36.6516C71.5297 36.7605 71.2458 36.8161 70.9179 36.8161L70.9202 36.8138Z" fill="#252630"/>
<path d="M77.5836 36.8138C77.0457 36.8138 76.6185 36.6585 76.2976 36.3457C75.9767 36.0329 75.8174 35.5764 75.8174 34.9786V33.9428C75.8174 33.3427 75.9767 32.8885 76.2976 32.5757C76.6185 32.2629 77.0457 32.1077 77.5836 32.1077C78.1216 32.1077 78.5557 32.2629 78.8766 32.5757C79.1975 32.8885 79.3568 33.345 79.3568 33.9428V34.9786C79.3568 35.5787 79.1975 36.0329 78.8766 36.3457C78.5557 36.6585 78.1262 36.8138 77.5836 36.8138ZM77.5836 36.3272C77.9738 36.3272 78.2763 36.209 78.4933 35.975C78.7103 35.7409 78.8166 35.4142 78.8166 34.9948V33.922C78.8166 33.5026 78.708 33.1782 78.4933 32.9418C78.2786 32.7055 77.9761 32.5896 77.5836 32.5896C77.1911 32.5896 76.8956 32.7078 76.6809 32.9418C76.4662 33.1759 76.3576 33.5026 76.3576 33.922V34.9948C76.3576 35.4142 76.4639 35.7386 76.6809 35.975C76.8956 36.209 77.1958 36.3272 77.5836 36.3272Z" fill="#252630"/>
<path d="M82.8363 36.7234V32.1957H83.3766V36.2321H85.6577V36.7234H82.834H82.8363Z" fill="#252630"/>
<path d="M90.564 36.8137C90.2292 36.8137 89.936 36.7535 89.6866 36.633C89.4373 36.5125 89.2433 36.3318 89.1071 36.0931C88.9686 35.8544 88.9016 35.5602 88.9016 35.2103V32.1957H89.4373V35.2149C89.4373 35.5857 89.5365 35.8637 89.7328 36.0491C89.9314 36.2345 90.2084 36.3271 90.564 36.3271C90.9195 36.3271 91.1966 36.2345 91.3952 36.0491C91.5937 35.8637 91.6907 35.5857 91.6907 35.2149V32.1957H92.2309V35.2103C92.2309 35.5602 92.1617 35.8544 92.0255 36.0931C91.8869 36.3318 91.693 36.5125 91.4413 36.633C91.1897 36.7535 90.8964 36.8137 90.5617 36.8137H90.564Z" fill="#252630"/>
<path d="M97.4327 36.8138C96.8947 36.8138 96.4676 36.6585 96.1513 36.3457C95.8327 36.0329 95.6733 35.5764 95.6733 34.9786V33.9428C95.6733 33.3427 95.8327 32.8885 96.1513 32.5757C96.4699 32.2629 96.897 32.1077 97.4327 32.1077C97.9683 32.1077 98.3747 32.256 98.661 32.5549C98.9473 32.8515 99.0904 33.2593 99.0904 33.7783V33.8108H98.5548V33.7598C98.5548 33.4192 98.4624 33.1388 98.28 32.9233C98.0976 32.7055 97.8159 32.5966 97.4327 32.5966C97.0494 32.5966 96.7516 32.7148 96.5368 32.9488C96.3221 33.1828 96.2136 33.5119 96.2136 33.9359V34.9971C96.2136 35.4189 96.3198 35.7479 96.5368 35.9842C96.7516 36.2183 97.0494 36.3364 97.4327 36.3364C97.8159 36.3364 98.0976 36.2275 98.28 36.0097C98.4624 35.7919 98.5548 35.5139 98.5548 35.1732V35.069H99.0904V35.1524C99.0904 35.6691 98.9473 36.0769 98.661 36.3758C98.3747 36.6724 97.966 36.823 97.4327 36.823V36.8138ZM97.4396 38.0488C97.3103 38.0488 97.1879 38.0326 97.0725 37.9978C96.957 37.9631 96.8532 37.9191 96.7631 37.8611L96.9178 37.5367C96.9917 37.5808 97.0702 37.6155 97.1533 37.6456C97.2364 37.6758 97.3311 37.6897 97.4327 37.6897C97.5181 37.6897 97.592 37.6734 97.652 37.6387C97.712 37.6039 97.742 37.5483 97.742 37.4695C97.742 37.4 97.7143 37.349 97.6612 37.3143C97.6081 37.2795 97.5296 37.2633 97.4257 37.2633H97.1879L97.2526 36.5844H97.6266L97.5874 37.0107C97.7559 37.0107 97.8898 37.0548 97.9937 37.1405C98.0976 37.2262 98.1484 37.3514 98.1484 37.5159C98.1484 37.6364 98.1161 37.736 98.0514 37.8171C97.9868 37.8982 97.9014 37.9561 97.7928 37.9909C97.6843 38.028 97.5666 38.0465 97.4373 38.0465L97.4396 38.0488Z" fill="#252630"/>
<path d="M104.154 36.8137C103.616 36.8137 103.189 36.6585 102.868 36.3457C102.547 36.0328 102.387 35.5764 102.387 34.9785V33.9428C102.387 33.3426 102.547 32.8885 102.868 32.5757C103.189 32.2628 103.616 32.1076 104.154 32.1076C104.692 32.1076 105.126 32.2628 105.447 32.5757C105.768 32.8885 105.927 33.345 105.927 33.9428V34.9785C105.927 35.5787 105.768 36.0328 105.447 36.3457C105.126 36.6585 104.696 36.8137 104.154 36.8137ZM104.154 36.3271C104.544 36.3271 104.846 36.2089 105.063 35.9749C105.28 35.7409 105.387 35.4142 105.387 34.9948V33.9219C105.387 33.5025 105.278 33.1781 105.063 32.9418C104.849 32.7054 104.546 32.5896 104.154 32.5896C103.761 32.5896 103.466 32.7077 103.251 32.9418C103.036 33.1758 102.928 33.5025 102.928 33.9219V34.9948C102.928 35.4142 103.034 35.7386 103.251 35.9749C103.466 36.2089 103.766 36.3271 104.154 36.3271ZM103.387 31.8203L103.085 31.614L103.29 31.2896C103.346 31.2085 103.41 31.139 103.484 31.0857C103.558 31.0324 103.65 31.0046 103.761 31.0046C103.86 31.0046 103.946 31.0255 104.022 31.0695C104.098 31.1135 104.177 31.1761 104.258 31.2642C104.313 31.3198 104.362 31.3638 104.398 31.3962C104.435 31.4287 104.482 31.4449 104.535 31.4449C104.588 31.4449 104.627 31.431 104.659 31.4009C104.692 31.3707 104.722 31.3337 104.752 31.292L104.92 31.0278L105.223 31.234L105.017 31.5584C104.966 31.6349 104.904 31.7021 104.83 31.7577C104.756 31.8133 104.664 31.8411 104.553 31.8411C104.449 31.8411 104.362 31.8203 104.29 31.7762C104.216 31.7322 104.14 31.6697 104.059 31.5816C104.004 31.526 103.955 31.482 103.918 31.4518C103.879 31.4217 103.835 31.4078 103.782 31.4078C103.729 31.4078 103.687 31.4217 103.653 31.4518C103.618 31.482 103.586 31.519 103.556 31.5608L103.387 31.8203Z" fill="#252630"/>
<path d="M109.406 36.7234V32.1957H112.184V32.6869H109.947V34.2H112.001V34.6912H109.947V36.2298H112.216V36.7211H109.406V36.7234Z" fill="#252630"/>
<path d="M117.113 36.8138C116.788 36.8138 116.494 36.7559 116.236 36.64C115.977 36.5241 115.774 36.348 115.626 36.114C115.478 35.88 115.405 35.5857 115.405 35.2312V35.0945H115.94V35.2312C115.94 35.6065 116.049 35.8846 116.268 36.0677C116.487 36.2507 116.769 36.3434 117.113 36.3434C117.457 36.3434 117.734 36.2646 117.919 36.1047C118.104 35.9449 118.196 35.7456 118.196 35.5023C118.196 35.3354 118.154 35.201 118.071 35.1014C117.988 35.0018 117.87 34.9207 117.72 34.8581C117.57 34.7955 117.395 34.7399 117.192 34.6936L116.857 34.6102C116.594 34.5407 116.363 34.4572 116.162 34.3576C115.959 34.258 115.802 34.1282 115.689 33.966C115.575 33.8038 115.518 33.5976 115.518 33.3427C115.518 33.0878 115.58 32.8677 115.707 32.6823C115.834 32.4969 116.012 32.3556 116.243 32.256C116.474 32.1563 116.737 32.1077 117.039 32.1077C117.342 32.1077 117.619 32.161 117.861 32.2652C118.104 32.3718 118.295 32.5271 118.434 32.731C118.572 32.9349 118.644 33.1944 118.644 33.5049V33.776H118.108V33.5049C118.108 33.2848 118.062 33.1087 117.97 32.9743C117.877 32.8399 117.75 32.7426 117.589 32.6777C117.427 32.6128 117.245 32.5804 117.037 32.5804C116.741 32.5804 116.501 32.6452 116.321 32.7773C116.141 32.9094 116.051 33.0948 116.051 33.3357C116.051 33.4956 116.09 33.6254 116.166 33.725C116.243 33.8247 116.353 33.9058 116.494 33.9683C116.635 34.0309 116.806 34.0865 117.002 34.1328L117.337 34.2163C117.598 34.2719 117.833 34.3483 118.044 34.4457C118.251 34.543 118.418 34.6751 118.542 34.8396C118.667 35.0064 118.729 35.2219 118.729 35.4907C118.729 35.7595 118.662 35.9912 118.528 36.1882C118.394 36.3874 118.207 36.5404 117.965 36.6516C117.723 36.7605 117.439 36.8161 117.111 36.8161L117.113 36.8138Z" fill="#252630"/>
<path d="M126.374 36.7234V32.1957H129.101V32.6869H126.916V34.207H128.927V34.6982H126.916V36.7234H126.376H126.374Z" fill="#252630"/>
<path d="M132.432 36.7234V32.1957H132.973V36.7234H132.432Z" fill="#252630"/>
<path d="M136.581 36.7234V32.1957H137.632L139.204 36.3804H139.287V32.1957H139.823V36.7234H138.772L137.207 32.5317H137.117V36.7234H136.581Z" fill="#252630"/>
<path d="M143.085 36.7234L144.478 32.1957H145.431L146.823 36.7234H146.262L145.914 35.5787H143.993L143.644 36.7234H143.083H143.085ZM144.129 35.0875H145.773L144.999 32.527H144.909L144.129 35.0875Z" fill="#252630"/>
<path d="M150.076 36.7234V32.1957H151.127L152.699 36.3804H152.782V32.1957H153.318V36.7234H152.267L150.702 32.5317H150.612V36.7234H150.076Z" fill="#252630"/>
<path d="M158.564 36.8138C158.026 36.8138 157.598 36.6585 157.282 36.3457C156.963 36.0329 156.804 35.5764 156.804 34.9786V33.9428C156.804 33.3427 156.963 32.8885 157.282 32.5757C157.601 32.2629 158.028 32.1077 158.564 32.1077C159.099 32.1077 159.506 32.256 159.792 32.5549C160.078 32.8515 160.221 33.2593 160.221 33.7783V33.8108H159.686V33.7598C159.686 33.4192 159.593 33.1388 159.411 32.9233C159.228 32.7055 158.947 32.5966 158.564 32.5966C158.18 32.5966 157.882 32.7148 157.668 32.9488C157.453 33.1828 157.344 33.5119 157.344 33.9359V34.9971C157.344 35.4189 157.451 35.7479 157.668 35.9842C157.882 36.2183 158.18 36.3364 158.564 36.3364C158.947 36.3364 159.228 36.2275 159.411 36.0097C159.593 35.7919 159.686 35.5139 159.686 35.1732V35.069H160.221V35.1524C160.221 35.6691 160.078 36.0769 159.792 36.3758C159.506 36.6724 159.097 36.823 158.564 36.823V36.8138Z" fill="#252630"/>
<path d="M163.647 36.7234V32.1957H166.425V32.6869H164.188V34.2H166.243V34.6912H164.188V36.2298H166.457V36.7211H163.647V36.7234Z" fill="#252630"/>
<path d="M169.854 36.7234V32.1957H170.394V36.7234H169.854Z" fill="#252630"/>
<path d="M174.003 36.7234V32.1957H175.827C176.106 32.1957 176.351 32.2443 176.565 32.3417C176.778 32.439 176.944 32.5757 177.064 32.7564C177.184 32.9348 177.244 33.1503 177.244 33.4006V33.4724C177.244 33.769 177.173 34.0054 177.032 34.1768C176.891 34.3506 176.722 34.4665 176.529 34.5267V34.6171C176.683 34.6217 176.81 34.6727 176.912 34.77C177.013 34.8673 177.064 35.0133 177.064 35.2056V36.7257H176.529V35.2705C176.529 35.1408 176.494 35.0411 176.422 34.9739C176.351 34.9044 176.245 34.8697 176.104 34.8697H174.545V36.7257H174.005L174.003 36.7234ZM174.545 34.3761H175.776C176.071 34.3761 176.3 34.3043 176.462 34.1606C176.623 34.017 176.704 33.8154 176.704 33.5558V33.5118C176.704 33.2523 176.626 33.0507 176.466 32.907C176.307 32.7634 176.078 32.6915 175.776 32.6915H174.545V34.3784V34.3761Z" fill="#252630"/>
<path d="M180.294 36.7234L181.686 32.1957H182.64L184.032 36.7234H183.471L183.122 35.5787H181.201L180.853 36.7234H180.292H180.294ZM181.338 35.0875H182.982L182.208 32.527H182.118L181.338 35.0875Z" fill="#252630"/>
<path d="M188.786 36.8138C188.461 36.8138 188.167 36.7559 187.909 36.64C187.65 36.5241 187.447 36.348 187.299 36.114C187.152 35.88 187.078 35.5857 187.078 35.2312V35.0945H187.613V35.2312C187.613 35.6065 187.722 35.8846 187.941 36.0677C188.16 36.2507 188.442 36.3434 188.786 36.3434C189.13 36.3434 189.407 36.2646 189.592 36.1047C189.777 35.9449 189.869 35.7456 189.869 35.5023C189.869 35.3354 189.827 35.201 189.744 35.1014C189.661 35.0018 189.543 34.9207 189.393 34.8581C189.243 34.7955 189.068 34.7399 188.865 34.6936L188.53 34.6102C188.267 34.5407 188.036 34.4572 187.835 34.3576C187.632 34.258 187.475 34.1282 187.362 33.966C187.248 33.8038 187.191 33.5976 187.191 33.3427C187.191 33.0878 187.253 32.8677 187.38 32.6823C187.507 32.4969 187.685 32.3556 187.916 32.256C188.147 32.1563 188.41 32.1077 188.712 32.1077C189.015 32.1077 189.292 32.161 189.534 32.2652C189.777 32.3718 189.968 32.5271 190.107 32.731C190.245 32.9349 190.317 33.1944 190.317 33.5049V33.776H189.781V33.5049C189.781 33.2848 189.735 33.1087 189.643 32.9743C189.55 32.8399 189.423 32.7426 189.262 32.6777C189.1 32.6128 188.918 32.5804 188.71 32.5804C188.414 32.5804 188.174 32.6452 187.994 32.7773C187.814 32.9094 187.724 33.0948 187.724 33.3357C187.724 33.4956 187.763 33.6254 187.84 33.725C187.916 33.8247 188.027 33.9058 188.167 33.9683C188.308 34.0309 188.479 34.0865 188.675 34.1328L189.01 34.2163C189.271 34.2719 189.507 34.3483 189.717 34.4457C189.924 34.543 190.091 34.6751 190.215 34.8396C190.34 35.0064 190.402 35.2219 190.402 35.4907C190.402 35.7595 190.335 35.9912 190.201 36.1882C190.068 36.3874 189.881 36.5404 189.638 36.6516C189.396 36.7605 189.112 36.8161 188.784 36.8161L188.786 36.8138Z" fill="#252630"/>
</svg>
