<svg width="185" height="32" viewBox="0 0 185 32" fill="none" xmlns="http://www.w3.org/2000/svg">
<path d="M36.3318 13.2431V12.8065C36.3318 11.2973 36.631 10.0033 37.2294 8.9287C37.8277 7.85405 38.6289 7.03227 39.6308 6.45939C40.6346 5.88849 41.733 5.60205 42.9297 5.60205C44.28 5.60205 45.3075 5.84898 46.0122 6.34284C46.7168 6.8367 47.2325 7.35427 47.5613 7.89751H48.0534V6.00899H51.2952V23.1163C51.2952 24.0448 51.0256 24.7856 50.4843 25.3387C49.943 25.8898 49.2107 26.1664 48.2856 26.1664H38.6781V23.2625H47.1873C47.7266 23.2625 47.9982 22.9721 47.9982 22.3913V18.237H47.5061C47.3132 18.5669 47.0337 18.9007 46.6676 19.2385C46.3015 19.5783 45.8134 19.8628 45.2071 20.0959C44.5989 20.329 43.8411 20.4435 42.9356 20.4435C41.7389 20.4435 40.6385 20.1571 39.6367 19.5862C38.6328 19.0153 37.8317 18.1915 37.2353 17.1169C36.6369 16.0423 36.3377 14.7503 36.3377 13.2391L36.3318 13.2431ZM43.8568 17.5416C45.0536 17.5416 46.0515 17.1544 46.8527 16.3801C47.6538 15.6057 48.0534 14.531 48.0534 13.1561V12.8658C48.0534 11.4711 47.6577 10.3964 46.8664 9.64183C46.0752 8.88721 45.0713 8.5099 43.8568 8.5099C42.6423 8.5099 41.6385 8.88721 40.8472 9.64183C40.0559 10.3964 39.6603 11.4711 39.6603 12.8658V13.1561C39.6603 14.531 40.0559 15.6057 40.8472 16.3801C41.6385 17.1544 42.6423 17.5416 43.8568 17.5416Z" fill="white"/>
<path d="M54.1377 20.3586V6.01092H57.3796V7.66634H57.8717C58.1039 7.06581 58.4641 6.63121 58.9562 6.3586C59.4483 6.08797 60.0506 5.95166 60.7651 5.95166H62.5012V8.91482H60.6785C59.7337 8.91482 58.9562 9.17163 58.348 9.68524C57.7398 10.1989 57.4367 10.9871 57.4367 12.0518V20.3586H54.1377Z" fill="white"/>
<path d="M70.4279 20.7655C69.0008 20.7655 67.7214 20.4692 66.5936 19.8805C65.4657 19.2898 64.578 18.4483 63.9304 17.3539C63.2828 16.2595 62.96 14.9478 62.96 13.4188V12.9546C62.96 11.4256 63.2828 10.108 63.9304 9.00372C64.576 7.89945 65.4637 7.05791 66.5936 6.47713C67.7214 5.89635 69.0008 5.60596 70.4279 5.60596C71.855 5.60596 73.1285 5.89635 74.2485 6.47713C75.3665 7.05791 76.2503 7.89945 76.8959 9.00372C77.5415 10.108 77.8663 11.4236 77.8663 12.9546V13.4188C77.8663 14.9478 77.5435 16.2615 76.8959 17.3539C76.2503 18.4483 75.3665 19.2898 74.2485 19.8805C73.1285 20.4712 71.8569 20.7655 70.4279 20.7655ZM70.4279 17.832C71.6444 17.832 72.6364 17.4349 73.408 16.6408C74.1796 15.8466 74.5654 14.7444 74.5654 13.3299V13.0395C74.5654 11.6073 74.1835 10.4991 73.4218 9.71488C72.66 8.93063 71.6601 8.53949 70.4259 8.53949C69.1918 8.53949 68.2115 8.93063 67.4301 9.71488C66.6487 10.4991 66.2589 11.6073 66.2589 13.0395V13.3299C66.2589 14.7444 66.6487 15.8466 67.4301 16.6408C68.2115 17.4349 69.2095 17.832 70.4259 17.832H70.4279Z" fill="white"/>
<path d="M81.0136 20.3589L78.7559 6.01123H82.0548L83.5882 18.1227H84.0803L86.2514 6.01123H91.5758L93.7469 18.1227H94.239L95.8018 6.01123H99.0713L96.8431 20.3589H91.3455L89.1744 8.24743H88.6823L86.5112 20.3589H81.0136Z" fill="white"/>
<path d="M107.187 20.3588C106.279 20.3588 105.551 20.0822 105.002 19.5311C104.453 18.9799 104.177 18.2391 104.177 17.3087V8.77085H100.416V6.01116H104.177V1.39258H107.476V6.01116H111.586V8.77085H107.476V16.7279C107.476 17.3087 107.746 17.5991 108.287 17.5991H111.153V20.3588H107.189H107.187Z" fill="white"/>
<path d="M113.539 20.3586V0.0273438H116.838V7.8975H117.33C117.503 7.56761 117.765 7.23968 118.111 6.90978C118.458 6.57988 118.916 6.30925 119.485 6.0959C120.054 5.88255 120.773 5.77588 121.641 5.77588C122.741 5.77588 123.709 6.02281 124.55 6.51667C125.388 7.01053 126.044 7.70193 126.518 8.59286C126.991 9.48378 127.227 10.5387 127.227 11.7595V20.3566H123.928V12.0203C123.928 10.8587 123.642 9.99147 123.074 9.42057C122.505 8.84967 121.7 8.56323 120.656 8.56323C119.479 8.56323 118.548 8.95436 117.863 9.73862C117.178 10.5229 116.836 11.641 116.836 13.0929V20.3546H113.537L113.539 20.3586Z" fill="white"/>
<path d="M136.71 20.7655C135.321 20.7655 134.073 20.4751 132.962 19.8943C131.852 19.3135 130.97 18.472 130.315 17.3677C129.66 16.2635 129.331 14.9379 129.331 13.3892V12.9823C129.331 11.4335 129.66 10.106 130.315 9.00372C130.97 7.89945 131.852 7.05791 132.962 6.47713C134.073 5.89635 135.321 5.60596 136.71 5.60596C138.1 5.60596 139.251 5.84894 140.226 6.33292C141.2 6.8169 141.985 7.48065 142.584 8.32219C143.182 9.16373 143.568 10.108 143.741 11.153L140.558 11.8207C140.462 11.2004 140.269 10.6453 139.98 10.1514C139.69 9.65759 139.281 9.26645 138.749 8.97606C138.218 8.68567 137.568 8.53949 136.797 8.53949C136.025 8.53949 135.297 8.71333 134.669 9.06298C134.041 9.41066 133.545 9.92427 133.179 10.6018C132.813 11.2794 132.63 12.0933 132.63 13.0415V13.3319C132.63 14.2801 132.813 15.094 133.179 15.7716C133.545 16.4492 134.043 16.9628 134.669 17.3105C135.295 17.6581 136.006 17.8339 136.797 17.8339C137.974 17.8339 138.866 17.5238 139.474 16.9055C140.082 16.2852 140.472 15.493 140.645 14.5231L143.828 15.2777C143.595 16.2852 143.182 17.2038 142.584 18.0374C141.985 18.871 141.2 19.5328 140.226 20.0267C139.251 20.5205 138.078 20.7675 136.71 20.7675V20.7655Z" fill="#97EBA9"/>
<path d="M145.676 20.3586V6.01092H148.918V7.66634H149.41C149.642 7.06581 150.002 6.63121 150.495 6.3586C150.987 6.08797 151.589 5.95166 152.303 5.95166H154.04V8.91482H152.217C151.272 8.91482 150.495 9.17163 149.886 9.68524C149.278 10.1989 148.975 10.9871 148.975 12.0518V20.3586H145.676Z" fill="#97EBA9"/>
<path d="M161.716 20.7655C160.289 20.7655 159.029 20.4613 157.939 19.8509C156.848 19.2405 156 18.3792 155.392 17.267C154.784 16.1528 154.48 14.851 154.48 13.3596V13.0119C154.48 11.5027 154.78 10.1949 155.378 9.09064C155.976 7.98636 156.815 7.131 157.896 6.52059C158.976 5.91017 160.22 5.60596 161.63 5.60596C163.039 5.60596 164.234 5.91017 165.277 6.52059C166.318 7.131 167.129 7.98636 167.708 9.09064C168.287 10.1949 168.576 11.4829 168.576 12.9526V14.1438H157.838C157.878 15.2678 158.273 16.1667 159.025 16.8442C159.777 17.5218 160.704 17.8616 161.803 17.8616C162.901 17.8616 163.684 17.6245 164.204 17.1504C164.726 16.6763 165.129 16.139 165.419 15.5385L168.139 16.9608C167.869 17.4843 167.478 18.0414 166.968 18.63C166.456 19.2207 165.777 19.7244 164.927 20.1393C164.078 20.5561 163.007 20.7635 161.714 20.7635L161.716 20.7655ZM157.868 11.6172H165.218C165.141 10.669 164.779 9.9144 164.133 9.35139C163.486 8.79037 162.643 8.50986 161.6 8.50986C160.557 8.50986 159.691 8.79037 159.053 9.35139C158.415 9.91242 158.022 10.669 157.866 11.6172H157.868Z" fill="#97EBA9"/>
<path d="M176.579 20.7655C175.422 20.7655 174.341 20.4791 173.337 19.9082C172.333 19.3373 171.532 18.4997 170.936 17.3954C170.338 16.2912 170.038 14.9656 170.038 13.4169V12.9527C170.038 11.4039 170.338 10.0764 170.936 8.97412C171.534 7.86985 172.329 7.03226 173.324 6.46136C174.318 5.89046 175.402 5.60402 176.579 5.60402C177.487 5.60402 178.242 5.71069 178.851 5.92404C179.459 6.13739 179.955 6.41395 180.341 6.75175C180.727 7.09152 181.016 7.44513 181.209 7.81256H181.701V0.0273438H185V20.3586H181.758V18.4701H181.266C180.937 19.0508 180.412 19.5783 179.689 20.0524C178.965 20.5265 177.928 20.7636 176.577 20.7636L176.579 20.7655ZM177.563 17.8616C178.76 17.8616 179.758 17.4744 180.559 16.7001C181.36 15.9257 181.76 14.8036 181.76 13.3319V13.0416C181.76 11.5698 181.364 10.4478 180.573 9.67343C179.782 8.89905 178.778 8.51187 177.563 8.51187C176.349 8.51187 175.345 8.89905 174.554 9.67343C173.762 10.4478 173.367 11.5718 173.367 13.0416V13.3319C173.367 14.8036 173.762 15.9277 174.554 16.7001C175.345 17.4744 176.349 17.8616 177.563 17.8616Z" fill="#97EBA9"/>
<path d="M30.4052 3.48047V21.8185C30.4052 26.6208 26.5256 30.5144 21.7405 30.5144H3.46826L30.4052 3.48047Z" fill="#97EBA9"/>
<path d="M10.8575 7.31901L15.1839 11.7954L0 27.0339V8.69589C0 3.8936 3.87963 0 8.66471 0H26.937L10.8575 7.31901Z" fill="#97EBA9"/>
<path d="M60.462 30.5736C60.1844 30.5736 59.9344 30.5243 59.714 30.4255C59.4935 30.3267 59.3203 30.1766 59.1943 29.9771C59.0684 29.7775 59.0054 29.5267 59.0054 29.2244V29.1079H59.462V29.2244C59.462 29.5444 59.5545 29.7815 59.7415 29.9376C59.9285 30.0936 60.1687 30.1726 60.462 30.1726C60.7552 30.1726 60.9914 30.1055 61.1489 29.9692C61.3064 29.8329 61.3851 29.663 61.3851 29.4555C61.3851 29.3133 61.3497 29.1987 61.2788 29.1138C61.208 29.0289 61.1076 28.9597 60.9796 28.9064C60.8517 28.853 60.7021 28.8056 60.5289 28.7661L60.2435 28.695C60.0191 28.6357 59.8222 28.5646 59.651 28.4797C59.4778 28.3947 59.3439 28.2841 59.2475 28.1458C59.151 28.0075 59.1018 27.8317 59.1018 27.6144C59.1018 27.3971 59.155 27.2095 59.2632 27.0514C59.3715 26.8934 59.523 26.7729 59.7199 26.688C59.9167 26.603 60.1411 26.5615 60.399 26.5615C60.6568 26.5615 60.893 26.607 61.0997 26.6959C61.3064 26.7867 61.4698 26.9191 61.5879 27.0929C61.706 27.2668 61.767 27.488 61.767 27.7527V27.9838H61.3103V27.7527C61.3103 27.565 61.271 27.4149 61.1922 27.3003C61.1135 27.1858 61.0052 27.1028 60.8674 27.0475C60.7297 26.9922 60.5742 26.9645 60.397 26.9645C60.1451 26.9645 59.9403 27.0198 59.7868 27.1324C59.6333 27.245 59.5565 27.4031 59.5565 27.6085C59.5565 27.7448 59.59 27.8554 59.6549 27.9404C59.7199 28.0253 59.8144 28.0945 59.9344 28.1478C60.0545 28.2011 60.2002 28.2485 60.3675 28.2881L60.6529 28.3592C60.8753 28.4066 61.0761 28.4718 61.2552 28.5547C61.4324 28.6377 61.5741 28.7503 61.6804 28.8906C61.7867 29.0328 61.8398 29.2165 61.8398 29.4457C61.8398 29.6748 61.7827 29.8724 61.6686 30.0403C61.5544 30.2102 61.395 30.3405 61.1883 30.4354C60.9816 30.5282 60.7395 30.5756 60.46 30.5756L60.462 30.5736Z" fill="white"/>
<path d="M66.1428 30.5736C65.6841 30.5736 65.32 30.4413 65.0464 30.1746C64.7728 29.9079 64.637 29.5188 64.637 29.0091V28.1261C64.637 27.6144 64.7728 27.2272 65.0464 26.9606C65.32 26.6939 65.6841 26.5615 66.1428 26.5615C66.6014 26.5615 66.9714 26.6939 67.245 26.9606C67.5186 27.2272 67.6545 27.6164 67.6545 28.1261V29.0091C67.6545 29.5207 67.5186 29.9079 67.245 30.1746C66.9714 30.4413 66.6053 30.5736 66.1428 30.5736ZM66.1428 30.1588C66.4754 30.1588 66.7333 30.0581 66.9183 29.8585C67.1033 29.659 67.1939 29.3805 67.1939 29.0229V28.1083C67.1939 27.7507 67.1013 27.4742 66.9183 27.2727C66.7352 27.0712 66.4774 26.9724 66.1428 26.9724C65.8081 26.9724 65.5562 27.0732 65.3731 27.2727C65.1901 27.4722 65.0976 27.7507 65.0976 28.1083V29.0229C65.0976 29.3805 65.1881 29.657 65.3731 29.8585C65.5562 30.0581 65.8121 30.1588 66.1428 30.1588Z" fill="white"/>
<path d="M70.6206 30.4962V26.6362H71.0812V30.0774H73.026V30.4962H70.6187H70.6206Z" fill="white"/>
<path d="M77.2087 30.5733C76.9233 30.5733 76.6733 30.5219 76.4607 30.4192C76.2482 30.3165 76.0828 30.1624 75.9667 29.9589C75.8486 29.7555 75.7915 29.5046 75.7915 29.2063V26.6362H76.2482V29.2102C76.2482 29.5263 76.3328 29.7634 76.5001 29.9214C76.6694 30.0794 76.9056 30.1584 77.2087 30.1584C77.5118 30.1584 77.7481 30.0794 77.9173 29.9214C78.0866 29.7634 78.1693 29.5263 78.1693 29.2102V26.6362H78.6299V29.2063C78.6299 29.5046 78.5708 29.7555 78.4547 29.9589C78.3366 30.1624 78.1712 30.3165 77.9567 30.4192C77.7421 30.5219 77.4922 30.5733 77.2068 30.5733H77.2087Z" fill="white"/>
<path d="M83.0648 30.5736C82.6062 30.5736 82.2421 30.4413 81.9724 30.1746C81.7008 29.9079 81.5649 29.5188 81.5649 29.0091V28.1261C81.5649 27.6144 81.7008 27.2272 81.9724 26.9606C82.244 26.6939 82.6082 26.5615 83.0648 26.5615C83.5215 26.5615 83.8679 26.688 84.112 26.9428C84.3561 27.1956 84.4781 27.5433 84.4781 27.9858V28.0135H84.0214V27.97C84.0214 27.6796 83.9427 27.4406 83.7872 27.2569C83.6317 27.0712 83.3916 26.9783 83.0648 26.9783C82.7381 26.9783 82.4842 27.0791 82.3011 27.2786C82.118 27.4781 82.0255 27.7586 82.0255 28.1201V29.0249C82.0255 29.3844 82.1161 29.6649 82.3011 29.8664C82.4842 30.066 82.7381 30.1667 83.0648 30.1667C83.3916 30.1667 83.6317 30.0739 83.7872 29.8882C83.9427 29.7025 84.0214 29.4654 84.0214 29.175V29.0861H84.4781V29.1573C84.4781 29.5978 84.3561 29.9455 84.112 30.2003C83.8679 30.4531 83.5195 30.5815 83.0648 30.5815V30.5736ZM83.0707 31.6266C82.9605 31.6266 82.8562 31.6127 82.7578 31.5831C82.6593 31.5535 82.5708 31.5159 82.494 31.4665L82.6259 31.19C82.6889 31.2275 82.7558 31.2571 82.8267 31.2828C82.8975 31.3085 82.9782 31.3204 83.0648 31.3204C83.1377 31.3204 83.2006 31.3065 83.2518 31.2769C83.303 31.2473 83.3286 31.1999 83.3286 31.1327C83.3286 31.0734 83.305 31.03 83.2597 31.0003C83.2144 30.9707 83.1475 30.9569 83.0589 30.9569H82.8562L82.9113 30.3781H83.2302L83.1967 30.7416C83.3404 30.7416 83.4546 30.7791 83.5431 30.8522C83.6317 30.9253 83.675 31.0319 83.675 31.1722C83.675 31.2749 83.6475 31.3599 83.5923 31.429C83.5372 31.4982 83.4644 31.5475 83.3719 31.5772C83.2794 31.6088 83.179 31.6246 83.0688 31.6246L83.0707 31.6266Z" fill="white"/>
<path d="M88.7944 30.5735C88.3357 30.5735 87.9716 30.4412 87.698 30.1745C87.4244 29.9078 87.2886 29.5186 87.2886 29.009V28.126C87.2886 27.6143 87.4244 27.2271 87.698 26.9604C87.9716 26.6938 88.3357 26.5614 88.7944 26.5614C89.253 26.5614 89.623 26.6938 89.8966 26.9604C90.1702 27.2271 90.3061 27.6163 90.3061 28.126V29.009C90.3061 29.5206 90.1702 29.9078 89.8966 30.1745C89.623 30.4412 89.2569 30.5735 88.7944 30.5735ZM88.7944 30.1587C89.127 30.1587 89.3849 30.0579 89.5699 29.8584C89.7549 29.6589 89.8455 29.3804 89.8455 29.0228V28.1082C89.8455 27.7506 89.753 27.4741 89.5699 27.2726C89.3868 27.0711 89.129 26.9723 88.7944 26.9723C88.4597 26.9723 88.2078 27.073 88.0247 27.2726C87.8417 27.4721 87.7492 27.7506 87.7492 28.1082V29.0228C87.7492 29.3804 87.8397 29.6569 88.0247 29.8584C88.2078 30.0579 88.4637 30.1587 88.7944 30.1587ZM88.1409 26.3165L87.883 26.1406L88.0582 25.8641C88.1054 25.7949 88.1606 25.7357 88.2235 25.6902C88.2865 25.6448 88.3653 25.6211 88.4597 25.6211C88.5444 25.6211 88.6172 25.6389 88.6822 25.6764C88.7471 25.7139 88.8141 25.7673 88.8829 25.8423C88.9302 25.8898 88.9715 25.9273 89.003 25.9549C89.0345 25.9826 89.0739 25.9964 89.1191 25.9964C89.1644 25.9964 89.1979 25.9846 89.2254 25.9589C89.253 25.9332 89.2786 25.9016 89.3042 25.866L89.4479 25.6408L89.7057 25.8167L89.5305 26.0932C89.4872 26.1584 89.4341 26.2157 89.3711 26.2631C89.3081 26.3105 89.2294 26.3342 89.1349 26.3342C89.0463 26.3342 88.9715 26.3164 88.9105 26.2789C88.8475 26.2414 88.7826 26.188 88.7137 26.113C88.6664 26.0656 88.6251 26.028 88.5936 26.0024C88.5601 25.9767 88.5227 25.9648 88.4775 25.9648C88.4322 25.9648 88.3968 25.9767 88.3672 26.0024C88.3377 26.028 88.3102 26.0596 88.2846 26.0952L88.1409 26.3165Z" fill="white"/>
<path d="M93.2727 30.4962V26.6362H95.6406V27.055H93.7333V28.345H95.4851V28.7638H93.7333V30.0755H95.6682V30.4943H93.2727V30.4962Z" fill="white"/>
<path d="M99.8431 30.5736C99.5655 30.5736 99.3155 30.5243 99.0951 30.4255C98.8746 30.3267 98.7014 30.1766 98.5754 29.9771C98.4495 29.7775 98.3865 29.5267 98.3865 29.2244V29.1079H98.8431V29.2244C98.8431 29.5444 98.9356 29.7815 99.1226 29.9376C99.3096 30.0936 99.5498 30.1726 99.8431 30.1726C100.136 30.1726 100.373 30.1055 100.53 29.9692C100.687 29.8329 100.766 29.663 100.766 29.4555C100.766 29.3133 100.731 29.1987 100.66 29.1138C100.589 29.0289 100.489 28.9597 100.361 28.9064C100.233 28.853 100.083 28.8056 99.91 28.7661L99.6246 28.695C99.4002 28.6357 99.2033 28.5646 99.0321 28.4797C98.8589 28.3947 98.725 28.2841 98.6286 28.1458C98.5321 28.0075 98.4829 27.8317 98.4829 27.6144C98.4829 27.3971 98.5361 27.2095 98.6443 27.0514C98.7526 26.8934 98.9042 26.7729 99.101 26.688C99.2978 26.603 99.5222 26.5615 99.7801 26.5615C100.038 26.5615 100.274 26.607 100.481 26.6959C100.687 26.7867 100.851 26.9191 100.969 27.0929C101.087 27.2668 101.148 27.488 101.148 27.7527V27.9838H100.691V27.7527C100.691 27.565 100.652 27.4149 100.573 27.3003C100.495 27.1858 100.386 27.1028 100.249 27.0475C100.111 26.9922 99.9553 26.9645 99.7781 26.9645C99.5262 26.9645 99.3214 27.0198 99.1679 27.1324C99.0144 27.245 98.9376 27.4031 98.9376 27.6085C98.9376 27.7448 98.9711 27.8554 99.036 27.9404C99.101 28.0253 99.1955 28.0945 99.3155 28.1478C99.4356 28.2011 99.5813 28.2485 99.7486 28.2881L100.034 28.3592C100.256 28.4066 100.457 28.4718 100.636 28.5547C100.813 28.6377 100.955 28.7503 101.061 28.8906C101.168 29.0328 101.221 29.2165 101.221 29.4457C101.221 29.6748 101.164 29.8724 101.05 30.0403C100.935 30.2102 100.776 30.3405 100.569 30.4354C100.363 30.5282 100.121 30.5756 99.8411 30.5756L99.8431 30.5736Z" fill="white"/>
<path d="M107.738 30.4962V26.6362H110.063V27.055H108.201V28.3509H109.915V28.7697H108.201V30.4962H107.74H107.738Z" fill="white"/>
<path d="M112.903 30.4962V26.6362H113.364V30.4962H112.903Z" fill="white"/>
<path d="M116.44 30.4962V26.6362H117.336L118.676 30.2039H118.747V26.6362H119.204V30.4962H118.308L116.974 26.9227H116.897V30.4962H116.44Z" fill="white"/>
<path d="M121.985 30.4962L123.172 26.6362H123.985L125.172 30.4962H124.693L124.396 29.5204H122.758L122.461 30.4962H121.983H121.985ZM122.875 29.1016H124.276L123.617 26.9187H123.54L122.875 29.1016Z" fill="white"/>
<path d="M127.945 30.4962V26.6362H128.841L130.181 30.2039H130.252V26.6362H130.709V30.4962H129.813L128.479 26.9227H128.402V30.4962H127.945Z" fill="white"/>
<path d="M135.181 30.5736C134.722 30.5736 134.358 30.4413 134.088 30.1746C133.817 29.9079 133.681 29.5188 133.681 29.0091V28.1261C133.681 27.6144 133.817 27.2272 134.088 26.9606C134.36 26.6939 134.724 26.5615 135.181 26.5615C135.637 26.5615 135.984 26.688 136.228 26.9428C136.472 27.1956 136.594 27.5433 136.594 27.9858V28.0135H136.137V27.97C136.137 27.6796 136.059 27.4406 135.903 27.2569C135.748 27.0712 135.508 26.9783 135.181 26.9783C134.854 26.9783 134.6 27.0791 134.417 27.2786C134.234 27.4781 134.141 27.7586 134.141 28.1201V29.0249C134.141 29.3844 134.232 29.6649 134.417 29.8664C134.6 30.066 134.854 30.1667 135.181 30.1667C135.508 30.1667 135.748 30.0739 135.903 29.8882C136.059 29.7025 136.137 29.4654 136.137 29.175V29.0861H136.594V29.1573C136.594 29.5978 136.472 29.9455 136.228 30.2003C135.984 30.4531 135.635 30.5815 135.181 30.5815V30.5736Z" fill="white"/>
<path d="M139.515 30.4962V26.6362H141.883V27.055H139.976V28.345H141.728V28.7638H139.976V30.0755H141.911V30.4943H139.515V30.4962Z" fill="white"/>
<path d="M144.806 30.4962V26.6362H145.267V30.4962H144.806Z" fill="white"/>
<path d="M148.343 30.4962V26.6362H149.898C150.136 26.6362 150.345 26.6777 150.528 26.7607C150.709 26.8437 150.851 26.9602 150.953 27.1143C151.056 27.2664 151.107 27.4501 151.107 27.6635V27.7247C151.107 27.9776 151.046 28.1791 150.926 28.3252C150.806 28.4734 150.662 28.5722 150.497 28.6235V28.7006C150.629 28.7045 150.737 28.748 150.823 28.8309C150.91 28.9139 150.953 29.0384 150.953 29.2023V30.4982H150.497V29.2576C150.497 29.147 150.467 29.0621 150.406 29.0048C150.345 28.9455 150.255 28.9159 150.134 28.9159H148.806V30.4982H148.345L148.343 30.4962ZM148.806 28.4951H149.855C150.107 28.4951 150.302 28.4339 150.44 28.3114C150.577 28.1889 150.646 28.0171 150.646 27.7958V27.7583C150.646 27.537 150.579 27.3652 150.443 27.2427C150.308 27.1202 150.113 27.059 149.855 27.059H148.806V28.4971V28.4951Z" fill="white"/>
<path d="M153.707 30.4962L154.894 26.6362H155.707L156.894 30.4962H156.416L156.118 29.5204H154.481L154.183 30.4962H153.705H153.707ZM154.597 29.1016H155.998L155.339 26.9187H155.262L154.597 29.1016Z" fill="white"/>
<path d="M160.946 30.5736C160.669 30.5736 160.419 30.5243 160.198 30.4255C159.978 30.3267 159.805 30.1766 159.679 29.9771C159.553 29.7775 159.49 29.5267 159.49 29.2244V29.1079H159.946V29.2244C159.946 29.5444 160.039 29.7815 160.226 29.9376C160.413 30.0936 160.653 30.1726 160.946 30.1726C161.24 30.1726 161.476 30.1055 161.633 29.9692C161.791 29.8329 161.869 29.663 161.869 29.4555C161.869 29.3133 161.834 29.1987 161.763 29.1138C161.692 29.0289 161.592 28.9597 161.464 28.9064C161.336 28.853 161.186 28.8056 161.013 28.7661L160.728 28.695C160.503 28.6357 160.307 28.5646 160.135 28.4797C159.962 28.3947 159.828 28.2841 159.732 28.1458C159.635 28.0075 159.586 27.8317 159.586 27.6144C159.586 27.3971 159.639 27.2095 159.748 27.0514C159.856 26.8934 160.007 26.7729 160.204 26.688C160.401 26.603 160.625 26.5615 160.883 26.5615C161.141 26.5615 161.377 26.607 161.584 26.6959C161.791 26.7867 161.954 26.9191 162.072 27.0929C162.19 27.2668 162.251 27.488 162.251 27.7527V27.9838H161.795V27.7527C161.795 27.565 161.755 27.4149 161.677 27.3003C161.598 27.1858 161.49 27.1028 161.352 27.0475C161.214 26.9922 161.059 26.9645 160.881 26.9645C160.629 26.9645 160.425 27.0198 160.271 27.1324C160.118 27.245 160.041 27.4031 160.041 27.6085C160.041 27.7448 160.074 27.8554 160.139 27.9404C160.204 28.0253 160.299 28.0945 160.419 28.1478C160.539 28.2011 160.685 28.2485 160.852 28.2881L161.137 28.3592C161.36 28.4066 161.56 28.4718 161.74 28.5547C161.917 28.6377 162.058 28.7503 162.165 28.8906C162.271 29.0328 162.324 29.2165 162.324 29.4457C162.324 29.6748 162.267 29.8724 162.153 30.0403C162.039 30.2102 161.879 30.3405 161.673 30.4354C161.466 30.5282 161.224 30.5756 160.944 30.5756L160.946 30.5736Z" fill="white"/>
</svg>
