<svg xmlns="http://www.w3.org/2000/svg" width="217" height="39" fill="none"><path fill="#252630" d="M42.617 16.485v-.512c0-1.77.35-3.288 1.052-4.548.702-1.26 1.642-2.225 2.817-2.897 1.178-.67 2.466-1.005 3.87-1.005 1.584 0 2.789.29 3.615.869.827.579 1.432 1.186 1.817 1.823h.578V8h3.802v20.067c0 1.089-.316 1.957-.951 2.606-.635.647-1.494.971-2.579.971h-11.27v-3.406h9.982c.632 0 .95-.34.95-1.022v-4.873h-.576c-.227.387-.554.779-.984 1.175-.43.398-1.002.732-1.713 1.006-.714.273-1.602.407-2.664.407-1.404 0-2.695-.335-3.87-1.005-1.178-.67-2.117-1.636-2.817-2.897-.702-1.26-1.053-2.776-1.053-4.548l-.006.004Zm8.826 5.043c1.404 0 2.575-.455 3.514-1.363.94-.908 1.408-2.169 1.408-3.781v-.341c0-1.636-.464-2.896-1.392-3.782-.928-.885-2.105-1.327-3.53-1.327-1.424 0-2.602.442-3.53 1.327-.928.886-1.392 2.146-1.392 3.782v.34c0 1.613.464 2.874 1.392 3.782.928.908 2.106 1.363 3.53 1.363ZM63.502 24.832V8.002h3.803v1.942h.577c.272-.704.695-1.214 1.272-1.534.577-.317 1.284-.477 2.122-.477h2.036v3.476h-2.138c-1.108 0-2.02.3-2.734.903-.713.603-1.069 1.527-1.069 2.776v9.744h-3.869ZM82.61 25.31c-1.674 0-3.175-.348-4.498-1.039a7.723 7.723 0 0 1-3.124-2.964c-.76-1.283-1.138-2.822-1.138-4.615v-.545c0-1.793.379-3.339 1.138-4.634a7.546 7.546 0 0 1 3.124-2.964c1.323-.681 2.824-1.022 4.498-1.022 1.674 0 3.168.341 4.481 1.022a7.583 7.583 0 0 1 3.106 2.964c.757 1.295 1.138 2.838 1.138 4.634v.545c0 1.793-.379 3.334-1.138 4.615a7.734 7.734 0 0 1-3.106 2.964c-1.313.693-2.805 1.038-4.481 1.038Zm0-3.442c1.427 0 2.59-.466 3.495-1.397.905-.932 1.358-2.225 1.358-3.884v-.34c0-1.68-.448-2.98-1.341-3.9-.894-.92-2.067-1.379-3.514-1.379-1.448 0-2.598.46-3.514 1.379-.917.92-1.374 2.22-1.374 3.9v.34c0 1.66.457 2.952 1.374 3.884.916.931 2.087 1.397 3.514 1.397h.002ZM95.027 24.832l-2.648-16.83h3.87l1.798 14.207h.577l2.547-14.207h6.245l2.547 14.207h.577l1.833-14.207h3.835l-2.613 16.83h-6.449l-2.547-14.207h-.577l-2.547 14.207h-6.448ZM125.727 24.832c-1.064 0-1.918-.325-2.563-.971-.644-.647-.967-1.515-.967-2.607V11.24h-4.412V8.002h4.412V2.585h3.87v5.417h4.821v3.237h-4.821v9.334c0 .681.316 1.022.951 1.022h3.362v3.237H125.727ZM133.178 24.832V.984h3.87v9.231h.577c.203-.387.51-.771.917-1.158.406-.387.944-.705 1.611-.955s1.51-.375 2.528-.375c1.291 0 2.427.29 3.413.869.983.579 1.752 1.39 2.309 2.435.554 1.045.831 2.282.831 3.714V24.83h-3.87V15.05c0-1.362-.335-2.38-1.002-3.05-.667-.669-1.612-1.005-2.835-1.005-1.381 0-2.473.459-3.276 1.379-.804.92-1.206 2.231-1.206 3.934v8.518h-3.869l.002.005Z"/><path fill="#97EBA9" d="M160.357 25.31c-1.63 0-3.093-.341-4.396-1.023-1.302-.681-2.336-1.668-3.105-2.963-.769-1.296-1.154-2.85-1.154-4.667v-.477c0-1.817.385-3.374 1.154-4.667.769-1.296 1.803-2.283 3.105-2.964 1.303-.681 2.766-1.022 4.396-1.022s2.981.285 4.124.853c1.143.568 2.064 1.346 2.766 2.333a7.885 7.885 0 0 1 1.358 3.32l-3.734.784a5.488 5.488 0 0 0-.679-1.958 3.662 3.662 0 0 0-1.443-1.379c-.623-.34-1.385-.512-2.29-.512s-1.759.204-2.496.614c-.736.408-1.318 1.01-1.748 1.805-.429.795-.644 1.75-.644 2.862v.34c0 1.113.215 2.068.644 2.862.43.795 1.014 1.398 1.748 1.805.734.408 1.568.614 2.496.614 1.381 0 2.427-.363 3.14-1.089.713-.727 1.171-1.656 1.374-2.794l3.733.885a8.921 8.921 0 0 1-1.459 3.237c-.702.978-1.623 1.754-2.766 2.333-1.143.58-2.519.87-4.124.87v-.003ZM170.874 24.832V8.002h3.803v1.942h.577c.273-.704.695-1.214 1.272-1.534.577-.317 1.284-.477 2.122-.477h2.036v3.476h-2.137c-1.109 0-2.021.3-2.734.903-.714.603-1.069 1.527-1.069 2.776v9.744h-3.87ZM189.689 25.31c-1.674 0-3.152-.358-4.431-1.074a7.547 7.547 0 0 1-2.987-3.03c-.714-1.307-1.069-2.834-1.069-4.584v-.408c0-1.77.351-3.304 1.052-4.6a7.49 7.49 0 0 1 2.953-3.014c1.268-.716 2.727-1.073 4.38-1.073s3.055.357 4.279 1.073c1.221.716 2.172 1.72 2.851 3.015.679 1.295 1.018 2.806 1.018 4.53v1.397h-12.594c.046 1.318.51 2.373 1.392 3.168.882.794 1.969 1.193 3.258 1.193 1.288 0 2.207-.278 2.816-.834a6.153 6.153 0 0 0 1.425-1.891l3.191 1.668c-.317.614-.776 1.268-1.374 1.958-.6.693-1.397 1.284-2.394 1.77-.995.49-2.251.733-3.768.733l.002.002Zm-4.514-10.732h8.621c-.09-1.112-.515-1.997-1.272-2.657-.759-.658-1.748-.987-2.971-.987-1.224 0-2.24.329-2.988.987-.748.658-1.21 1.545-1.392 2.657h.002ZM207.123 25.31a7.57 7.57 0 0 1-3.803-1.006c-1.177-.67-2.117-1.653-2.816-2.948-.702-1.295-1.053-2.85-1.053-4.667v-.544c0-1.817.351-3.374 1.053-4.667.701-1.295 1.634-2.278 2.8-2.947a7.533 7.533 0 0 1 3.819-1.006c1.064 0 1.951.125 2.664.375.714.25 1.296.575 1.748.971.453.399.792.814 1.018 1.245h.578V.984H217v23.848h-3.803v-2.215h-.577c-.385.68-1.002 1.3-1.849 1.856-.85.556-2.067.834-3.65.834l.002.002Zm1.154-3.407c1.404 0 2.575-.454 3.514-1.363.94-.908 1.409-2.224 1.409-3.95v-.34c0-1.727-.464-3.043-1.392-3.952-.929-.908-2.106-1.362-3.531-1.362-1.424 0-2.602.454-3.53 1.362-.928.909-1.392 2.227-1.392 3.951v.34c0 1.727.464 3.045 1.392 3.951.928.909 2.106 1.363 3.53 1.363ZM35.664 5.034v21.51c0 5.633-4.55 10.2-10.163 10.2H4.068l31.596-31.71ZM12.736 9.536l5.074 5.25L0 32.662v-21.51C0 5.518 4.55.951 10.164.951h21.432l-18.86 8.585Z"/><path fill="#252630" d="M70.92 36.814c-.325 0-.619-.058-.877-.174a1.366 1.366 0 0 1-.61-.526c-.147-.234-.221-.528-.221-.883v-.137h.535v.137c0 .375.109.654.328.837.22.183.501.275.845.275s.621-.078.806-.238a.761.761 0 0 0 .277-.603.607.607 0 0 0-.125-.4.896.896 0 0 0-.35-.244 3.251 3.251 0 0 0-.53-.164l-.334-.084a3.674 3.674 0 0 1-.695-.252c-.203-.1-.36-.23-.473-.392-.114-.162-.171-.368-.171-.623s.062-.475.19-.66c.126-.186.304-.327.535-.427.23-.1.494-.148.796-.148.303 0 .58.053.822.157.243.107.434.262.573.466.138.204.21.463.21.774v.271h-.536v-.271c0-.22-.046-.396-.138-.53a.816.816 0 0 0-.381-.297 1.465 1.465 0 0 0-.552-.098c-.295 0-.536.065-.716.197a.651.651 0 0 0-.27.559c0 .16.04.29.116.389.076.1.187.18.327.243.141.063.312.118.508.165l.335.083c.261.056.497.132.707.23.207.097.374.23.498.394.125.166.187.382.187.65 0 .27-.067.501-.2.698-.134.2-.321.352-.564.464a2.067 2.067 0 0 1-.854.164l.002-.002ZM77.584 36.814c-.538 0-.966-.156-1.286-.468-.321-.313-.48-.77-.48-1.367v-1.036c0-.6.159-1.054.48-1.367.32-.313.748-.468 1.286-.468s.972.155 1.293.468c.32.313.48.769.48 1.367v1.036c0 .6-.16 1.054-.48 1.367-.321.313-.75.468-1.293.468Zm0-.487c.39 0 .692-.118.91-.352.216-.234.323-.56.323-.98v-1.073c0-.42-.109-.744-.324-.98-.214-.236-.517-.352-.91-.352-.392 0-.687.118-.902.352-.215.234-.323.56-.323.98v1.073c0 .42.106.744.323.98.215.234.515.352.903.352ZM82.836 36.723v-4.527h.54v4.036h2.282v.491h-2.824.002ZM90.564 36.814c-.335 0-.628-.06-.877-.181a1.309 1.309 0 0 1-.58-.54c-.138-.239-.205-.533-.205-.883v-3.014h.535v3.019c0 .37.1.649.296.834.198.185.475.278.831.278s.633-.093.831-.278c.199-.185.296-.463.296-.834v-3.02h.54v3.015c0 .35-.07.644-.206.883a1.32 1.32 0 0 1-.584.54c-.251.12-.545.18-.88.18h.003ZM97.433 36.814c-.538 0-.965-.156-1.282-.468-.318-.313-.478-.77-.478-1.367v-1.036c0-.6.16-1.054.478-1.367.319-.313.746-.468 1.282-.468.535 0 .942.148 1.228.447.286.297.43.704.43 1.223v.033h-.536v-.051c0-.34-.093-.621-.275-.837-.182-.218-.464-.326-.847-.326-.384 0-.681.118-.896.352-.215.234-.323.563-.323.987v1.061c0 .422.106.75.323.987.215.234.512.352.896.352.383 0 .665-.108.847-.326.182-.218.275-.496.275-.837v-.104h.535v.083c0 .517-.143.925-.429 1.224-.286.296-.695.447-1.228.447v-.01Zm.007 1.235a1.265 1.265 0 0 1-.677-.188l.155-.324c.074.044.152.078.235.109a.82.82 0 0 0 .28.044c.085 0 .159-.017.219-.051.06-.035.09-.09.09-.17 0-.069-.028-.12-.08-.155a.434.434 0 0 0-.236-.05h-.238l.065-.68h.374l-.04.427c.169 0 .303.044.407.13.104.085.154.21.154.375 0 .12-.032.22-.097.301a.525.525 0 0 1-.258.174 1.089 1.089 0 0 1-.356.056l.003.002ZM104.154 36.814c-.538 0-.965-.156-1.286-.468-.321-.313-.481-.77-.481-1.367v-1.036c0-.6.16-1.054.481-1.367.321-.313.748-.468 1.286-.468s.972.155 1.293.468c.321.313.48.769.48 1.367v1.035c0 .6-.159 1.055-.48 1.368-.321.313-.751.468-1.293.468Zm0-.487c.39 0 .692-.118.909-.352.217-.234.324-.56.324-.98v-1.073c0-.42-.109-.744-.324-.98-.214-.237-.517-.352-.909-.352-.393 0-.688.118-.903.352-.215.234-.323.56-.323.98v1.073c0 .42.106.744.323.98.215.234.515.352.903.352Zm-.767-4.507-.302-.206.205-.324a.826.826 0 0 1 .194-.204.461.461 0 0 1 .277-.081c.099 0 .185.02.261.065.076.043.155.106.236.194.055.056.104.1.14.132a.203.203 0 0 0 .137.049.17.17 0 0 0 .124-.044.702.702 0 0 0 .093-.109l.168-.264.303.206-.206.324a.807.807 0 0 1-.187.2.447.447 0 0 1-.277.083.492.492 0 0 1-.263-.065 1.04 1.04 0 0 1-.231-.194 1.86 1.86 0 0 0-.141-.13.213.213 0 0 0-.136-.044.185.185 0 0 0-.129.044.622.622 0 0 0-.097.109l-.169.26ZM109.406 36.723v-4.527h2.778v.49h-2.237V34.2h2.054v.491h-2.054v1.539h2.269v.491h-2.81v.002ZM117.113 36.814c-.325 0-.619-.058-.877-.174a1.366 1.366 0 0 1-.61-.526c-.148-.234-.221-.528-.221-.883v-.137h.535v.137c0 .375.109.654.328.837.219.183.501.275.845.275s.621-.078.806-.238a.76.76 0 0 0 .277-.603.608.608 0 0 0-.125-.4.896.896 0 0 0-.351-.244 3.248 3.248 0 0 0-.528-.164l-.335-.084a3.685 3.685 0 0 1-.695-.252c-.203-.1-.36-.23-.473-.392-.114-.162-.171-.368-.171-.623s.062-.475.189-.66a1.21 1.21 0 0 1 .536-.427c.231-.1.494-.148.796-.148.303 0 .58.053.822.157.243.107.434.262.573.466.138.204.21.463.21.774v.271h-.536v-.271c0-.22-.046-.396-.138-.53a.822.822 0 0 0-.381-.297 1.467 1.467 0 0 0-.552-.098c-.296 0-.536.065-.716.197a.651.651 0 0 0-.27.559c0 .16.039.29.115.389.077.1.187.18.328.243.141.063.312.118.508.165l.335.083c.261.056.496.132.707.23.207.097.374.23.498.394.125.166.187.382.187.65 0 .27-.067.501-.201.698-.134.2-.321.352-.563.464a2.063 2.063 0 0 1-.854.164l.002-.002ZM126.374 36.723v-4.527h2.727v.49h-2.185v1.521h2.011v.491h-2.011v2.025h-.542ZM132.432 36.723v-4.527h.541v4.527h-.541ZM136.581 36.723v-4.527h1.051l1.572 4.184h.083v-4.184h.536v4.527h-1.051l-1.565-4.191h-.09v4.191h-.536ZM143.085 36.723l1.393-4.527h.953l1.392 4.527h-.561l-.348-1.144h-1.921l-.349 1.144h-.561.002Zm1.044-1.636h1.644l-.774-2.56h-.09l-.78 2.56ZM150.076 36.723v-4.527h1.051l1.572 4.184h.083v-4.184h.536v4.527h-1.051l-1.565-4.191h-.09v4.191h-.536ZM158.564 36.814c-.538 0-.966-.156-1.282-.468-.319-.313-.478-.77-.478-1.367v-1.036c0-.6.159-1.054.478-1.367.319-.313.746-.468 1.282-.468.535 0 .942.148 1.228.447.286.297.429.704.429 1.223v.033h-.535v-.051c0-.34-.093-.621-.275-.837-.183-.218-.464-.326-.847-.326-.384 0-.682.118-.896.352-.215.234-.324.563-.324.987v1.061c0 .422.107.75.324.987.214.234.512.352.896.352.383 0 .664-.108.847-.326.182-.218.275-.496.275-.837v-.104h.535v.083c0 .517-.143.925-.429 1.224-.286.296-.695.447-1.228.447v-.01ZM163.647 36.723v-4.527h2.778v.49h-2.237V34.2h2.055v.491h-2.055v1.539h2.269v.491h-2.81v.002ZM169.854 36.723v-4.527h.54v4.527h-.54ZM174.003 36.723v-4.527h1.824c.279 0 .524.048.738.146.213.097.379.234.499.414.12.179.18.394.18.645v.071c0 .297-.071.533-.212.705a1.04 1.04 0 0 1-.503.35v.09a.557.557 0 0 1 .383.153c.101.097.152.243.152.436v1.52h-.535V35.27c0-.13-.035-.229-.107-.296-.071-.07-.177-.104-.318-.104h-1.559v1.856h-.54l-.002-.003Zm.542-2.347h1.231c.295 0 .524-.072.686-.215.161-.144.242-.346.242-.605v-.044c0-.26-.078-.461-.238-.605-.159-.144-.388-.215-.69-.215h-1.231v1.686-.002ZM180.294 36.723l1.392-4.527h.954l1.392 4.527h-.561l-.349-1.144h-1.921l-.348 1.144h-.561.002Zm1.044-1.636h1.644l-.774-2.56h-.09l-.78 2.56ZM188.786 36.814c-.325 0-.619-.058-.877-.174a1.366 1.366 0 0 1-.61-.526c-.147-.234-.221-.528-.221-.883v-.137h.535v.137c0 .375.109.654.328.837.219.183.501.275.845.275s.621-.078.806-.238a.76.76 0 0 0 .277-.603.608.608 0 0 0-.125-.4.896.896 0 0 0-.351-.244 3.248 3.248 0 0 0-.528-.164l-.335-.084a3.685 3.685 0 0 1-.695-.252c-.203-.1-.36-.23-.473-.392-.114-.162-.171-.368-.171-.623s.062-.475.189-.66a1.21 1.21 0 0 1 .536-.427c.231-.1.494-.148.796-.148.303 0 .58.053.822.157.243.107.434.262.573.466.138.204.21.463.21.774v.271h-.536v-.271c0-.22-.046-.396-.138-.53a.822.822 0 0 0-.381-.297 1.467 1.467 0 0 0-.552-.098c-.296 0-.536.065-.716.197a.651.651 0 0 0-.27.559c0 .16.039.29.116.389.076.1.187.18.327.243.141.063.312.118.508.165l.335.083c.261.056.497.132.707.23.207.097.374.23.498.394.125.166.187.382.187.65 0 .27-.067.501-.201.698-.133.2-.32.352-.563.464a2.063 2.063 0 0 1-.854.164l.002-.002Z"/></svg>