<svg xmlns="http://www.w3.org/2000/svg" width="185" height="32" fill="none"><path fill="#fff" d="M36.332 13.243v-.437c0-1.509.299-2.803.897-3.877.599-1.075 1.4-1.897 2.402-2.47a6.555 6.555 0 0 1 3.299-.857c1.35 0 2.377.247 3.082.74.705.495 1.22 1.012 1.55 1.556h.491V6.009h3.242v17.107c0 .929-.27 1.67-.81 2.223-.542.55-1.274.827-2.2.827h-9.607v-2.904h8.51c.539 0 .81-.29.81-.87v-4.155h-.492c-.193.33-.472.664-.838 1.002-.367.34-.855.624-1.46.857-.61.233-1.367.348-2.272.348a6.55 6.55 0 0 1-3.3-.858c-1.003-.57-1.804-1.394-2.4-2.47-.6-1.074-.898-2.366-.898-3.877l-.006.004Zm7.525 4.299c1.197 0 2.194-.388 2.996-1.162.8-.774 1.2-1.849 1.2-3.224v-.29c0-1.395-.395-2.47-1.187-3.224-.79-.755-1.795-1.132-3.01-1.132-1.214 0-2.218.377-3.009 1.132-.791.754-1.187 1.83-1.187 3.224v.29c0 1.375.396 2.45 1.187 3.224s1.795 1.162 3.01 1.162ZM54.138 20.359V6.01h3.242v1.655h.492c.232-.6.592-1.035 1.084-1.307.492-.271 1.095-.407 1.81-.407H62.5v2.963H60.68c-.945 0-1.723.257-2.331.77-.608.514-.911 1.302-.911 2.367v8.307h-3.3ZM70.428 20.765c-1.427 0-2.707-.296-3.834-.884a6.585 6.585 0 0 1-2.664-2.527c-.647-1.095-.97-2.406-.97-3.935v-.464c0-1.53.323-2.847.97-3.951a6.433 6.433 0 0 1 2.664-2.527c1.127-.58 2.407-.871 3.834-.871s2.7.29 3.82.871a6.465 6.465 0 0 1 2.648 2.527c.645 1.104.97 2.42.97 3.95v.465c0 1.529-.323 2.843-.97 3.935a6.594 6.594 0 0 1-2.647 2.527c-1.12.59-2.392.884-3.821.884Zm0-2.933c1.216 0 2.208-.397 2.98-1.191.772-.794 1.157-1.897 1.157-3.311v-.29c0-1.433-.382-2.54-1.143-3.325-.762-.784-1.762-1.176-2.996-1.176s-2.215.392-2.996 1.176c-.781.784-1.171 1.892-1.171 3.325v.29c0 1.414.39 2.517 1.171 3.31.781.795 1.78 1.192 2.996 1.192h.002ZM81.014 20.359 78.756 6.01h3.299l1.533 12.112h.492L86.251 6.01h5.325l2.17 12.112h.493L95.802 6.01h3.27L96.842 20.36h-5.498l-2.17-12.112h-.493l-2.17 12.112h-5.498ZM107.187 20.359c-.908 0-1.636-.277-2.185-.828-.549-.551-.825-1.292-.825-2.222V8.77h-3.761V6.01h3.761V1.393h3.299V6.01h4.11v2.76h-4.11v7.957c0 .58.27.871.811.871h2.866v2.76H107.187ZM113.539 20.359V.027h3.299v7.87h.492c.173-.33.435-.657.781-.987.347-.33.805-.6 1.374-.814.569-.213 1.288-.32 2.156-.32 1.1 0 2.068.247 2.909.74a5.177 5.177 0 0 1 1.968 2.077c.473.89.709 1.946.709 3.166v8.598h-3.299V12.02c0-1.161-.286-2.029-.854-2.6-.569-.57-1.374-.857-2.418-.857-1.177 0-2.108.391-2.793 1.176-.685.784-1.027 1.902-1.027 3.354v7.262h-3.299l.002.004Z"/><path fill="#97EBA9" d="M136.71 20.765c-1.389 0-2.637-.29-3.748-.87a6.572 6.572 0 0 1-2.647-2.527c-.655-1.104-.984-2.43-.984-3.979v-.407c0-1.548.329-2.876.984-3.978a6.572 6.572 0 0 1 2.647-2.527c1.111-.58 2.359-.871 3.748-.871 1.39 0 2.541.243 3.516.727a6.254 6.254 0 0 1 2.358 1.99 6.715 6.715 0 0 1 1.157 2.83l-3.183.668a4.689 4.689 0 0 0-.578-1.67 3.131 3.131 0 0 0-1.231-1.175c-.531-.29-1.181-.437-1.952-.437-.772 0-1.5.174-2.128.524-.628.348-1.124.861-1.49 1.539-.366.677-.549 1.491-.549 2.44v.29c0 .948.183 1.762.549 2.44.366.677.864 1.19 1.49 1.539.626.347 1.337.523 2.128.523 1.177 0 2.069-.31 2.677-.928.608-.62.998-1.413 1.171-2.383l3.183.755a7.632 7.632 0 0 1-1.244 2.76c-.599.833-1.384 1.495-2.358 1.989-.975.493-2.148.74-3.516.74v-.002ZM145.676 20.359V6.01h3.242v1.655h.492c.232-.6.592-1.035 1.085-1.307.492-.271 1.094-.407 1.808-.407h1.737v2.963h-1.823c-.945 0-1.722.257-2.331.77-.608.514-.911 1.302-.911 2.367v8.307h-3.299ZM161.716 20.765c-1.427 0-2.687-.304-3.777-.914a6.433 6.433 0 0 1-2.547-2.584c-.608-1.114-.912-2.416-.912-3.907v-.348c0-1.51.3-2.817.898-3.921a6.378 6.378 0 0 1 2.518-2.57c1.08-.61 2.324-.915 3.734-.915 1.409 0 2.604.304 3.647.915a6.306 6.306 0 0 1 2.431 2.57c.579 1.104.868 2.392.868 3.862v1.19h-10.738c.04 1.125.435 2.024 1.187 2.701.752.678 1.679 1.018 2.778 1.018 1.098 0 1.881-.237 2.401-.712a5.245 5.245 0 0 0 1.215-1.611l2.72 1.422c-.27.523-.661 1.08-1.171 1.669-.512.59-1.191 1.094-2.041 1.51-.849.416-1.92.623-3.213.623l.002.002Zm-3.848-9.148h7.35c-.077-.948-.439-1.703-1.085-2.266-.647-.56-1.49-.841-2.533-.841s-1.909.28-2.547.841c-.638.561-1.031 1.318-1.187 2.266h.002ZM176.579 20.765a6.453 6.453 0 0 1-3.242-.857c-1.004-.57-1.805-1.408-2.401-2.513-.598-1.104-.898-2.43-.898-3.978v-.464c0-1.55.3-2.877.898-3.979.598-1.104 1.393-1.942 2.388-2.513a6.42 6.42 0 0 1 3.255-.857c.908 0 1.663.107 2.272.32.608.213 1.104.49 1.49.828.386.34.675.693.868 1.06h.492V.028H185V20.36h-3.242V18.47h-.492c-.329.58-.854 1.108-1.577 1.582-.724.474-1.761.712-3.112.712l.002.002Zm.984-2.903c1.197 0 2.195-.388 2.996-1.162.801-.774 1.201-1.896 1.201-3.368v-.29c0-1.472-.396-2.594-1.187-3.369-.791-.774-1.795-1.161-3.01-1.161-1.214 0-2.218.387-3.009 1.161-.792.775-1.187 1.899-1.187 3.369v.29c0 1.472.395 2.596 1.187 3.368.791.774 1.795 1.162 3.009 1.162ZM30.405 3.48v18.338c0 4.803-3.88 8.696-8.665 8.696H3.469L30.405 3.48ZM10.857 7.319l4.327 4.476L0 27.034V8.696C0 3.894 3.88 0 8.665 0h18.272l-16.08 7.319Z"/><path fill="#fff" d="M60.462 30.574c-.278 0-.528-.05-.748-.149a1.164 1.164 0 0 1-.52-.448c-.126-.2-.189-.45-.189-.753v-.116h.457v.116c0 .32.092.558.28.714.187.156.427.235.72.235s.53-.067.687-.204a.649.649 0 0 0 .236-.514.517.517 0 0 0-.106-.341.763.763 0 0 0-.3-.208 2.772 2.772 0 0 0-.45-.14l-.286-.071a3.137 3.137 0 0 1-.592-.215 1.031 1.031 0 0 1-.404-.334.905.905 0 0 1-.145-.532c0-.217.053-.405.161-.563a1.03 1.03 0 0 1 .457-.363c.197-.085.421-.127.679-.127.258 0 .494.046.7.135.207.09.37.223.489.397.118.174.179.395.179.66v.23h-.457v-.23a.782.782 0 0 0-.118-.453.696.696 0 0 0-.325-.253 1.25 1.25 0 0 0-.47-.082c-.252 0-.457.055-.61.167a.555.555 0 0 0-.23.476c0 .137.033.247.098.332.065.085.16.154.28.208.12.053.265.1.432.14l.286.071c.222.048.423.113.602.196.177.083.32.195.425.336.107.142.16.326.16.555 0 .229-.057.426-.171.594-.115.17-.274.3-.48.395-.207.093-.45.14-.729.14l.002-.001ZM66.143 30.574c-.459 0-.823-.133-1.097-.4-.273-.266-.409-.655-.409-1.165v-.883c0-.512.136-.899.41-1.165.273-.267.637-.4 1.096-.4.458 0 .828.133 1.102.4.274.266.41.655.41 1.165v.883c0 .512-.136.899-.41 1.166-.274.266-.64.399-1.102.399Zm0-.415c.332 0 .59-.1.775-.3.185-.2.276-.479.276-.836v-.915c0-.357-.093-.634-.276-.835-.183-.202-.44-.3-.775-.3s-.587.1-.77.3c-.183.2-.275.478-.275.835v.915c0 .358.09.634.275.835.183.2.44.3.77.3ZM70.62 30.496v-3.86h.461v3.441h1.945v.42h-2.407.002ZM77.209 30.573c-.286 0-.536-.051-.748-.154a1.116 1.116 0 0 1-.494-.46c-.118-.203-.175-.454-.175-.753v-2.57h.456v2.574c0 .316.085.553.252.711.17.158.406.237.709.237.303 0 .54-.079.708-.237.17-.158.252-.395.252-.71v-2.575h.46v2.57c0 .299-.058.55-.174.753a1.125 1.125 0 0 1-.498.46 1.719 1.719 0 0 1-.75.154h.002ZM83.065 30.574c-.459 0-.823-.133-1.093-.4-.271-.266-.407-.655-.407-1.165v-.883c0-.512.136-.899.407-1.165.272-.267.636-.4 1.093-.4.457 0 .803.127 1.047.382.244.253.366.6.366 1.043v.027h-.457v-.043c0-.29-.078-.53-.234-.713-.155-.186-.395-.279-.722-.279-.327 0-.58.101-.764.3-.183.2-.276.48-.276.842v.905c0 .36.091.64.276.841.183.2.437.3.764.3s.567-.092.722-.278c.156-.186.234-.423.234-.713v-.089h.457v.071c0 .44-.122.788-.366 1.043-.244.253-.593.381-1.047.381v-.007Zm.006 1.053a1.08 1.08 0 0 1-.577-.16l.132-.277c.063.037.13.067.2.093a.7.7 0 0 0 .239.037.37.37 0 0 0 .187-.043c.051-.03.077-.077.077-.144a.148.148 0 0 0-.07-.133.37.37 0 0 0-.2-.043h-.203l.055-.579h.32l-.034.364c.143 0 .258.037.346.11.089.073.132.18.132.32a.397.397 0 0 1-.083.257.448.448 0 0 1-.22.148.93.93 0 0 1-.303.048l.002.002ZM88.794 30.573c-.458 0-.822-.132-1.096-.399-.274-.266-.41-.655-.41-1.165v-.883c0-.512.136-.899.41-1.166.274-.266.638-.399 1.096-.399.459 0 .829.133 1.103.4.273.266.41.655.41 1.165v.883c0 .512-.137.899-.41 1.165-.274.267-.64.4-1.103.4Zm0-.414c.333 0 .59-.101.776-.3.185-.2.276-.479.276-.836v-.915c0-.357-.093-.634-.276-.835-.183-.202-.441-.3-.776-.3-.334 0-.586.1-.77.3-.182.2-.275.478-.275.835v.915c0 .357.09.634.276.835.183.2.439.3.77.3Zm-.653-3.842-.258-.176.175-.277a.697.697 0 0 1 .165-.174.394.394 0 0 1 .237-.069c.084 0 .157.018.222.055.065.038.132.091.2.166.048.048.09.085.121.113a.17.17 0 0 0 .116.041.146.146 0 0 0 .106-.037.624.624 0 0 0 .08-.093l.143-.225.258.176-.175.276a.686.686 0 0 1-.16.17.382.382 0 0 1-.236.071.42.42 0 0 1-.225-.055.887.887 0 0 1-.196-.166 1.643 1.643 0 0 0-.12-.11.182.182 0 0 0-.116-.038.16.16 0 0 0-.11.037.54.54 0 0 0-.083.093l-.144.222ZM93.273 30.496v-3.86h2.368v.419h-1.908v1.29h1.752v.419h-1.752v1.312h1.935v.418h-2.395v.002ZM99.843 30.574c-.278 0-.528-.05-.748-.149a1.164 1.164 0 0 1-.52-.448c-.126-.2-.189-.45-.189-.753v-.116h.457v.116c0 .32.093.558.28.714.187.156.427.235.72.235s.53-.067.687-.204a.65.65 0 0 0 .236-.514.517.517 0 0 0-.106-.341.763.763 0 0 0-.299-.208 2.786 2.786 0 0 0-.451-.14l-.285-.071a3.137 3.137 0 0 1-.593-.215 1.031 1.031 0 0 1-.403-.334.905.905 0 0 1-.146-.532c0-.217.053-.405.161-.563.109-.158.26-.278.457-.363.197-.085.421-.127.68-.127.257 0 .493.046.7.135.206.09.37.223.488.397.118.174.179.395.179.66v.23h-.457v-.23a.78.78 0 0 0-.118-.453.694.694 0 0 0-.324-.253 1.253 1.253 0 0 0-.47-.082c-.253 0-.458.055-.611.167a.555.555 0 0 0-.23.476c0 .137.033.247.098.332.065.085.16.154.28.208.12.053.265.1.433.14l.285.071c.222.048.423.113.602.196.177.083.319.195.425.336.107.142.16.326.16.555 0 .229-.057.426-.171.594-.115.17-.274.3-.481.395-.206.093-.448.14-.728.14l.002-.001ZM107.738 30.496v-3.86h2.325v.419h-1.862v1.296h1.714v.419h-1.714v1.726h-.463ZM112.903 30.496v-3.86h.461v3.86h-.461ZM116.44 30.496v-3.86h.896l1.34 3.568h.071v-3.568h.457v3.86h-.896l-1.334-3.573h-.077v3.573h-.457ZM121.985 30.496l1.187-3.86h.813l1.187 3.86h-.479l-.297-.976h-1.638l-.297.976h-.478.002Zm.89-1.394h1.401l-.659-2.183h-.077l-.665 2.183ZM127.945 30.496v-3.86h.896l1.34 3.568h.071v-3.568h.457v3.86h-.896l-1.334-3.573h-.077v3.573h-.457ZM135.181 30.574c-.459 0-.823-.133-1.093-.4-.271-.266-.407-.655-.407-1.165v-.883c0-.512.136-.899.407-1.165.272-.267.636-.4 1.093-.4.456 0 .803.127 1.047.382.244.253.366.6.366 1.043v.027h-.457v-.043c0-.29-.078-.53-.234-.713-.155-.186-.395-.279-.722-.279-.327 0-.581.101-.764.3-.183.2-.276.48-.276.842v.905c0 .36.091.64.276.841.183.2.437.3.764.3s.567-.092.722-.278c.156-.186.234-.423.234-.713v-.089h.457v.071c0 .44-.122.788-.366 1.043-.244.253-.593.381-1.047.381v-.007ZM139.515 30.496v-3.86h2.368v.419h-1.907v1.29h1.752v.419h-1.752v1.312h1.935v.418h-2.396v.002ZM144.806 30.496v-3.86h.461v3.86h-.461ZM148.343 30.496v-3.86h1.555c.238 0 .447.042.63.125.181.083.323.2.425.353a.957.957 0 0 1 .154.55v.06c0 .254-.061.455-.181.601a.884.884 0 0 1-.429.299v.077a.47.47 0 0 1 .326.13c.087.083.13.207.13.371v1.296h-.456v-1.24c0-.111-.03-.196-.091-.253-.061-.06-.151-.09-.272-.09h-1.328v1.583h-.461l-.002-.002Zm.463-2h1.049c.252 0 .447-.062.585-.185.137-.122.206-.294.206-.515v-.038c0-.221-.067-.393-.203-.515-.135-.123-.33-.184-.588-.184h-1.049v1.438-.002ZM153.707 30.496l1.187-3.86h.813l1.187 3.86h-.478l-.298-.976h-1.637l-.298.976h-.478.002Zm.89-1.394h1.401l-.659-2.183h-.077l-.665 2.183ZM160.946 30.574c-.277 0-.527-.05-.748-.149a1.165 1.165 0 0 1-.519-.448c-.126-.2-.189-.45-.189-.753v-.116h.456v.116c0 .32.093.558.28.714.187.156.427.235.72.235.294 0 .53-.067.687-.204a.647.647 0 0 0 .236-.514.517.517 0 0 0-.106-.341.763.763 0 0 0-.299-.208 2.786 2.786 0 0 0-.451-.14l-.285-.071a3.148 3.148 0 0 1-.593-.215 1.028 1.028 0 0 1-.403-.334.902.902 0 0 1-.146-.532c0-.217.053-.405.162-.563.108-.158.259-.278.456-.363.197-.085.421-.127.679-.127.258 0 .494.046.701.135.207.09.37.223.488.397.118.174.179.395.179.66v.23h-.456v-.23a.788.788 0 0 0-.118-.453.697.697 0 0 0-.325-.253 1.25 1.25 0 0 0-.471-.082c-.252 0-.456.055-.61.167a.556.556 0 0 0-.23.476c0 .137.033.247.098.332.065.085.16.154.28.208.12.053.266.1.433.14l.285.071c.223.048.423.113.603.196.177.083.318.195.425.336.106.142.159.326.159.555 0 .229-.057.426-.171.594-.114.17-.274.3-.48.395-.207.093-.449.14-.729.14l.002-.001Z"/></svg>