<svg width="40" height="40" viewBox="0 0 40 40" fill="none" xmlns="http://www.w3.org/2000/svg">
<rect x="-0.5" y="0.5" width="39" height="39" rx="19.5" transform="matrix(-1 0 0 1 39 0)" stroke="#252630"/>
<g clip-path="url(#clip0_37_747)">
<path d="M17.71 13.7105C18.1 14.1005 18.1 14.7305 17.71 15.1205L13.83 19.0005H29C29.55 19.0005 30 19.4505 30 20.0005C30 20.5505 29.55 21.0005 29 21.0005H13.82L17.7 24.8805C18.09 25.2705 18.09 25.9005 17.7 26.2905C17.31 26.6805 16.68 26.6805 16.29 26.2905L10.7 20.7005C10.31 20.3105 10.31 19.6805 10.7 19.2905L16.3 13.7105C16.68 13.3205 17.32 13.3205 17.71 13.7105Z" fill="#252630"/>
</g>
<defs>
<clipPath id="clip0_37_747">
<rect width="24" height="24" fill="white" transform="matrix(-1 0 0 1 32 8)"/>
</clipPath>
</defs>
</svg>
