<svg width="40" height="40" viewBox="0 0 40 40" fill="none" xmlns="http://www.w3.org/2000/svg">
<rect width="40" height="40" rx="20" fill="#97EBA9"/>
<g clip-path="url(#clip0_37_752)">
<path d="M22.29 13.7105C21.9 14.1005 21.9 14.7305 22.29 15.1205L26.17 19.0005H11C10.45 19.0005 10 19.4505 10 20.0005C10 20.5505 10.45 21.0005 11 21.0005H26.18L22.3 24.8805C21.91 25.2705 21.91 25.9005 22.3 26.2905C22.69 26.6805 23.32 26.6805 23.71 26.2905L29.3 20.7005C29.69 20.3105 29.69 19.6805 29.3 19.2905L23.7 13.7105C23.32 13.3205 22.68 13.3205 22.29 13.7105Z" fill="white"/>
</g>
<defs>
<clipPath id="clip0_37_752">
<rect width="24" height="24" fill="white" transform="translate(8 8)"/>
</clipPath>
</defs>
</svg>
